M48
; DRILL file {KiCad 9.0.0} date 2025-03-20T21:58:25+0100
; FORMAT={-:-/ absolute / inch / decimal}
; #@! TF.CreationDate,2025-03-20T21:58:25+01:00
; #@! TF.GenerationSoftware,Kicad,Pcbnew,9.0.0
; #@! TF.FileFunction,Plated,1,4,PTH
FMAT,2
INCH
; #@! TA.AperFunction,Plated,PTH,ViaDrill
T1C0.0118
; #@! TA.AperFunction,Plated,PTH,ComponentDrill
T2C0.0197
; #@! TA.AperFunction,Plated,PTH,ViaDrill
T3C0.0236
; #@! TA.AperFunction,Plated,PTH,ComponentDrill
T4C0.0590
; #@! TA.AperFunction,Plated,PTH,ComponentDrill
T5C0.0728
; #@! TA.AperFunction,Plated,PTH,ComponentDrill
T6C0.1260
; #@! TA.AperFunction,Plated,PTH,ComponentDrill
T7C0.1772
%
G90
G05
T1
X3.4685Y-2.748
X3.5827Y-2.7992
X3.5984Y-2.7402
X3.6102Y-2.5157
X3.622Y-3.2362
X3.6732Y-2.7874
X3.6742Y-2.8927
X3.7165Y-3.5197
X3.7756Y-3.0433
X3.7874Y-2.5551
X3.8071Y-2.7874
X3.811Y-2.7126
X3.811Y-2.8839
X3.8189Y-2.7559
X3.8228Y-3.0906
X3.9252Y-2.6654
X4.2126Y-2.685
X4.2382Y-2.8878
X4.2402Y-2.7362
X4.248Y-3.0866
X4.252Y-2.3189
X4.2559Y-2.8484
X4.2756Y-3.2953
X4.3228Y-3.1417
X4.3307Y-2.622
X4.3465Y-2.9035
X4.7756Y-3.4213
X4.7795Y-2.3465
X4.7835Y-2.5472
X4.7835Y-3.1693
T2
X3.0748Y-1.9567
X3.0748Y-3.7402
X3.1025Y-1.8899
X3.1025Y-2.0235
X3.1025Y-3.6733
X3.1025Y-3.807
X3.1693Y-1.8622
X3.1693Y-2.0512
X3.1693Y-3.6457
X3.1693Y-3.8346
X3.2361Y-1.8899
X3.2361Y-2.0235
X3.2361Y-3.6733
X3.2361Y-3.807
X3.2638Y-1.9567
X3.2638Y-3.7402
X5.9488Y-1.9724
X5.9488Y-3.7402
X5.9765Y-1.9056
X5.9765Y-2.0393
X5.9765Y-3.6733
X5.9765Y-3.807
X6.0433Y-1.878
X6.0433Y-2.0669
X6.0433Y-3.6457
X6.0433Y-3.8346
X6.1101Y-1.9056
X6.1101Y-2.0393
X6.1101Y-3.6733
X6.1101Y-3.807
X6.1378Y-1.9724
X6.1378Y-3.7402
T3
X3.5039Y-3.3465
X3.6811Y-2.2835
X3.8189Y-2.6575
X3.878Y-2.185
X4.2323Y-2.7953
X4.2402Y-2.9764
X4.7165Y-2.9094
T4
X5.3446Y-3.1322
X5.3446Y-3.6322
X5.3453Y-1.9961
X5.3453Y-2.4961
X5.7946Y-3.1322
X5.7946Y-3.6322
X5.7953Y-1.9961
X5.7953Y-2.4961
T5
X3.5512Y-1.9685
X3.7362Y-1.9685
X3.9213Y-1.9685
T6
X3.1693Y-1.9567
X3.1693Y-3.7402
X6.0433Y-1.9724
X6.0433Y-3.7402
T7
X3.2047Y-2.3268
X3.2047Y-2.6102
X3.2047Y-3.0276
X3.2047Y-3.311
M30
