%TF.GenerationSoftware,KiCad,Pcbnew,9.0.0*%
%TF.CreationDate,2025-03-24T08:49:24+01:00*%
%TF.ProjectId,Pcb_Ampli2,5063625f-416d-4706-9c69-322e6b696361,rev?*%
%TF.SameCoordinates,Original*%
%TF.FileFunction,Copper,L4,Bot*%
%TF.FilePolarity,Positive*%
%FSLAX46Y46*%
G04 Gerber Fmt 4.6, Leading zero omitted, Abs format (unit mm)*
G04 Created by KiCad (PCBNEW 9.0.0) date 2025-03-24 08:49:24*
%MOMM*%
%LPD*%
G01*
G04 APERTURE LIST*
G04 Aperture macros list*
%AMRoundRect*
0 Rectangle with rounded corners*
0 $1 Rounding radius*
0 $2 $3 $4 $5 $6 $7 $8 $9 X,Y pos of 4 corners*
0 Add a 4 corners polygon primitive as box body*
4,1,4,$2,$3,$4,$5,$6,$7,$8,$9,$2,$3,0*
0 Add four circle primitives for the rounded corners*
1,1,$1+$1,$2,$3*
1,1,$1+$1,$4,$5*
1,1,$1+$1,$6,$7*
1,1,$1+$1,$8,$9*
0 Add four rect primitives between the rounded corners*
20,1,$1+$1,$2,$3,$4,$5,0*
20,1,$1+$1,$4,$5,$6,$7,0*
20,1,$1+$1,$6,$7,$8,$9,0*
20,1,$1+$1,$8,$9,$2,$3,0*%
G04 Aperture macros list end*
%TA.AperFunction,ComponentPad*%
%ADD10RoundRect,0.250000X0.725000X-0.600000X0.725000X0.600000X-0.725000X0.600000X-0.725000X-0.600000X0*%
%TD*%
%TA.AperFunction,ComponentPad*%
%ADD11O,1.950000X1.700000*%
%TD*%
%TA.AperFunction,ComponentPad*%
%ADD12C,0.800000*%
%TD*%
%TA.AperFunction,ComponentPad*%
%ADD13C,6.400000*%
%TD*%
%TA.AperFunction,ComponentPad*%
%ADD14C,2.006600*%
%TD*%
%TA.AperFunction,ComponentPad*%
%ADD15RoundRect,1.500000X-1.500000X1.500000X-1.500000X-1.500000X1.500000X-1.500000X1.500000X1.500000X0*%
%TD*%
%TA.AperFunction,ComponentPad*%
%ADD16C,6.000000*%
%TD*%
%TA.AperFunction,ComponentPad*%
%ADD17C,3.000000*%
%TD*%
%TA.AperFunction,ViaPad*%
%ADD18C,0.450000*%
%TD*%
%TA.AperFunction,ViaPad*%
%ADD19C,1.200000*%
%TD*%
%TA.AperFunction,Conductor*%
%ADD20C,0.160000*%
%TD*%
G04 APERTURE END LIST*
D10*
%TO.P,J5,1,Pin_1*%
%TO.N,GND*%
X81500000Y-82300000D03*
D11*
%TO.P,J5,2,Pin_2*%
%TO.N,Net-(J5-Pin_2)*%
X81500000Y-79800000D03*
%TO.P,J5,3,Pin_3*%
%TO.N,Net-(J5-Pin_3)*%
X81500000Y-77300000D03*
%TD*%
D12*
%TO.P,H4,1,1*%
%TO.N,GND*%
X151100000Y-95000000D03*
X151802944Y-93302944D03*
X151802944Y-96697056D03*
X153500000Y-92600000D03*
D13*
X153500000Y-95000000D03*
D12*
X153500000Y-97400000D03*
X155197056Y-93302944D03*
X155197056Y-96697056D03*
X155900000Y-95000000D03*
%TD*%
%TO.P,H1,1,1*%
%TO.N,GND*%
X78100000Y-49700000D03*
X78802944Y-48002944D03*
X78802944Y-51397056D03*
X80500000Y-47300000D03*
D13*
X80500000Y-49700000D03*
D12*
X80500000Y-52100000D03*
X82197056Y-48002944D03*
X82197056Y-51397056D03*
X82900000Y-49700000D03*
%TD*%
%TO.P,H2,1,1*%
%TO.N,GND*%
X151100000Y-50100000D03*
X151802944Y-48402944D03*
X151802944Y-51797056D03*
X153500000Y-47700000D03*
D13*
X153500000Y-50100000D03*
D12*
X153500000Y-52500000D03*
X155197056Y-48402944D03*
X155197056Y-51797056D03*
X155900000Y-50100000D03*
%TD*%
%TO.P,H3,1,1*%
%TO.N,GND*%
X78100000Y-95000000D03*
X78802944Y-93302944D03*
X78802944Y-96697056D03*
X80500000Y-92600000D03*
D13*
X80500000Y-95000000D03*
D12*
X80500000Y-97400000D03*
X82197056Y-93302944D03*
X82197056Y-96697056D03*
X82900000Y-95000000D03*
%TD*%
D14*
%TO.P,J2,S*%
%TO.N,Net-(C27-Pad2)*%
X135770000Y-50700000D03*
%TO.P,J2,SN*%
X147200000Y-50700000D03*
%TO.P,J2,T*%
%TO.N,Net-(C28-Pad1)*%
X135770000Y-63400000D03*
%TO.P,J2,TN*%
X147200000Y-63400000D03*
%TD*%
D15*
%TO.P,J1,1,Pin_1*%
%TO.N,GND*%
X81400000Y-59100000D03*
D16*
%TO.P,J1,2,Pin_2*%
%TO.N,Net-(J1-Pin_2)*%
X81400000Y-66300000D03*
%TD*%
D14*
%TO.P,J3,S*%
%TO.N,Net-(C34-Pad1)*%
X147181600Y-92258896D03*
%TO.P,J3,SN*%
X135751600Y-92258896D03*
%TO.P,J3,T*%
%TO.N,Net-(C33-Pad2)*%
X147181600Y-79558896D03*
%TO.P,J3,TN*%
X135751600Y-79558896D03*
%TD*%
D17*
%TO.P,SW1,1,A*%
%TO.N,+24V*%
X99600000Y-50000000D03*
%TO.P,SW1,2,B*%
%TO.N,Net-(J1-Pin_2)*%
X94900000Y-50000000D03*
%TO.P,SW1,3,C*%
%TO.N,unconnected-(SW1-C-Pad3)*%
X90200000Y-50000000D03*
%TD*%
D18*
%TO.N,GND*%
X91200000Y-66800000D03*
X91000000Y-79600000D03*
X107000000Y-68200000D03*
X121400000Y-59600000D03*
X93325000Y-73475000D03*
X107900000Y-78400000D03*
X94400000Y-89400000D03*
X121500000Y-80500000D03*
X121500000Y-64700000D03*
X128450000Y-62850000D03*
X107650000Y-73350000D03*
X121300000Y-86900000D03*
X110400000Y-73750000D03*
X96800000Y-73250000D03*
X88100000Y-69800000D03*
X99700000Y-67700000D03*
X93300000Y-70800000D03*
D19*
%TO.N,+24V*%
X119800000Y-73900000D03*
X93500000Y-58000000D03*
X89000000Y-85000000D03*
X97000000Y-67500000D03*
X107500000Y-71000000D03*
X107700000Y-75600000D03*
X98500000Y-55500000D03*
D18*
%TO.N,Net-(J5-Pin_3)*%
X91700000Y-63900000D03*
%TO.N,Net-(TPA1-5_Input_A)*%
X96200000Y-64900000D03*
X96800000Y-68900000D03*
%TO.N,Net-(TPA1-20_VBG)*%
X95900000Y-77300000D03*
X97100000Y-78500000D03*
%TO.N,Net-(TPA1-39_OUT_A)*%
X107700000Y-69500000D03*
X108000000Y-58900000D03*
%TO.N,Net-(TPA1-35_OUT_B)*%
X110000000Y-66600000D03*
X108100000Y-72350000D03*
%TO.N,Net-(TPA1-27_OUT_D)*%
X109800000Y-79800000D03*
X108600000Y-83700000D03*
%TO.N,Net-(TPA1-7_OC_ADJ)*%
X97000000Y-70000000D03*
X91400000Y-69600000D03*
%TO.N,Net-(TPA1-8_FREQ_ADJ)*%
X96700000Y-70800000D03*
X91000000Y-71100000D03*
%TD*%
D20*
%TO.N,Net-(J5-Pin_3)*%
X81500000Y-77300000D02*
X81500000Y-71415436D01*
X81500000Y-71415436D02*
X82557718Y-70357718D01*
X91700000Y-63900000D02*
X89015436Y-63900000D01*
X89015436Y-63900000D02*
X82557718Y-70357718D01*
%TO.N,Net-(TPA1-5_Input_A)*%
X96119000Y-68219000D02*
X96119000Y-64981000D01*
X96800000Y-68900000D02*
X96119000Y-68219000D01*
X96119000Y-64981000D02*
X96200000Y-64900000D01*
%TO.N,Net-(TPA1-20_VBG)*%
X95900000Y-77300000D02*
X97100000Y-78500000D01*
%TO.N,Net-(TPA1-39_OUT_A)*%
X108400000Y-59300000D02*
X108000000Y-58900000D01*
X107700000Y-69500000D02*
X108400000Y-68800000D01*
X108400000Y-68800000D02*
X108400000Y-59300000D01*
%TO.N,Net-(TPA1-35_OUT_B)*%
X110000000Y-70500000D02*
X110000000Y-66600000D01*
X109950000Y-70500000D02*
X110000000Y-70500000D01*
X108100000Y-72350000D02*
X109950000Y-70500000D01*
%TO.N,Net-(TPA1-27_OUT_D)*%
X108000000Y-83100000D02*
X108000000Y-82700000D01*
X108000000Y-81600000D02*
X109800000Y-79800000D01*
X108000000Y-82700000D02*
X108000000Y-81600000D01*
X108600000Y-83700000D02*
X108000000Y-83100000D01*
%TO.N,Net-(TPA1-7_OC_ADJ)*%
X97000000Y-70000000D02*
X96600000Y-69600000D01*
X96600000Y-69600000D02*
X91400000Y-69600000D01*
%TO.N,Net-(TPA1-8_FREQ_ADJ)*%
X96700000Y-70800000D02*
X96219000Y-71281000D01*
X91181000Y-71281000D02*
X91000000Y-71100000D01*
X96219000Y-71281000D02*
X91181000Y-71281000D01*
%TD*%
%TA.AperFunction,Conductor*%
%TO.N,GND*%
G36*
X96076437Y-70200185D02*
G01*
X96122192Y-70252989D01*
X96132136Y-70322147D01*
X96112500Y-70373391D01*
X96057074Y-70456340D01*
X96057069Y-70456349D01*
X96002380Y-70588381D01*
X96002380Y-70588382D01*
X95999931Y-70600694D01*
X95967544Y-70662605D01*
X95906827Y-70697177D01*
X95878314Y-70700500D01*
X91671893Y-70700500D01*
X91604854Y-70680815D01*
X91582709Y-70662653D01*
X91574975Y-70654647D01*
X91563532Y-70637521D01*
X91462479Y-70536468D01*
X91457778Y-70533327D01*
X91449461Y-70524717D01*
X91436440Y-70499860D01*
X91420647Y-70476676D01*
X91420450Y-70469332D01*
X91417041Y-70462824D01*
X91419526Y-70434878D01*
X91418774Y-70406831D01*
X91422579Y-70400545D01*
X91423230Y-70393229D01*
X91440428Y-70371063D01*
X91454959Y-70347062D01*
X91461697Y-70343651D01*
X91466061Y-70338027D01*
X91488416Y-70330126D01*
X91514454Y-70316947D01*
X91536181Y-70312624D01*
X91611620Y-70297619D01*
X91743653Y-70242929D01*
X91743653Y-70242928D01*
X91743655Y-70242928D01*
X91805810Y-70201398D01*
X91872487Y-70180520D01*
X91874700Y-70180500D01*
X96009398Y-70180500D01*
X96076437Y-70200185D01*
G37*
%TD.AperFunction*%
%TA.AperFunction,Conductor*%
G36*
X153449699Y-45000293D02*
G01*
X153497976Y-45000501D01*
X153498012Y-45000511D01*
X153502566Y-45000605D01*
X153870276Y-45015814D01*
X153875906Y-45016177D01*
X153959956Y-45023530D01*
X153964429Y-45024004D01*
X154287028Y-45064216D01*
X154293169Y-45065140D01*
X154371766Y-45078999D01*
X154375594Y-45079737D01*
X154699008Y-45147549D01*
X154705622Y-45149128D01*
X154774576Y-45167604D01*
X154777787Y-45168512D01*
X155103169Y-45265383D01*
X155110157Y-45267692D01*
X155164056Y-45287310D01*
X155166678Y-45288299D01*
X155496425Y-45416967D01*
X155503729Y-45420089D01*
X155534837Y-45434595D01*
X155536641Y-45435458D01*
X155874902Y-45600823D01*
X155883883Y-45605683D01*
X156230070Y-45811966D01*
X156238638Y-45817564D01*
X156566593Y-46051719D01*
X156574668Y-46058005D01*
X156756591Y-46212086D01*
X156882155Y-46318433D01*
X156889695Y-46325374D01*
X157174625Y-46610304D01*
X157181566Y-46617844D01*
X157271937Y-46724545D01*
X157439655Y-46922570D01*
X157441989Y-46925325D01*
X157448284Y-46933412D01*
X157682431Y-47261355D01*
X157688037Y-47269935D01*
X157894309Y-47616105D01*
X157899186Y-47625119D01*
X158064467Y-47963206D01*
X158065450Y-47965262D01*
X158079902Y-47996255D01*
X158083036Y-48003584D01*
X158211691Y-48333300D01*
X158212696Y-48335964D01*
X158232299Y-48389822D01*
X158234622Y-48396851D01*
X158331475Y-48722173D01*
X158332405Y-48725462D01*
X158350867Y-48794364D01*
X158352453Y-48801010D01*
X158420250Y-49124350D01*
X158421005Y-49128265D01*
X158434854Y-49206807D01*
X158435786Y-49213001D01*
X158475990Y-49535538D01*
X158476470Y-49540069D01*
X158483819Y-49624067D01*
X158484185Y-49629749D01*
X158499394Y-49997437D01*
X158499500Y-50002562D01*
X158499500Y-94997437D01*
X158499394Y-95002562D01*
X158484185Y-95370249D01*
X158483819Y-95375931D01*
X158476470Y-95459929D01*
X158475990Y-95464460D01*
X158435786Y-95786997D01*
X158434854Y-95793191D01*
X158421005Y-95871733D01*
X158420250Y-95875648D01*
X158352453Y-96198988D01*
X158350867Y-96205634D01*
X158332405Y-96274536D01*
X158331475Y-96277825D01*
X158234622Y-96603147D01*
X158232299Y-96610176D01*
X158212696Y-96664034D01*
X158211691Y-96666698D01*
X158083036Y-96996414D01*
X158079902Y-97003743D01*
X158065471Y-97034691D01*
X158064489Y-97036747D01*
X157899182Y-97374889D01*
X157894304Y-97383903D01*
X157688037Y-97730064D01*
X157682431Y-97738644D01*
X157448284Y-98066587D01*
X157441989Y-98074674D01*
X157181566Y-98382155D01*
X157174625Y-98389695D01*
X156889695Y-98674625D01*
X156882155Y-98681566D01*
X156574674Y-98941989D01*
X156566587Y-98948284D01*
X156238644Y-99182431D01*
X156230064Y-99188037D01*
X155883903Y-99394304D01*
X155874889Y-99399182D01*
X155536747Y-99564489D01*
X155534691Y-99565471D01*
X155503743Y-99579902D01*
X155496414Y-99583036D01*
X155166698Y-99711691D01*
X155164034Y-99712696D01*
X155110176Y-99732299D01*
X155103147Y-99734622D01*
X154777825Y-99831475D01*
X154774536Y-99832405D01*
X154705634Y-99850867D01*
X154698988Y-99852453D01*
X154375648Y-99920250D01*
X154371733Y-99921005D01*
X154293191Y-99934854D01*
X154286997Y-99935786D01*
X153964460Y-99975990D01*
X153959929Y-99976470D01*
X153875931Y-99983819D01*
X153870249Y-99984185D01*
X153502563Y-99999394D01*
X153497438Y-99999500D01*
X153451094Y-99999500D01*
X153448534Y-99999780D01*
X80402900Y-100399483D01*
X80397097Y-100399379D01*
X80029749Y-100384185D01*
X80024065Y-100383819D01*
X79940068Y-100376470D01*
X79935538Y-100375990D01*
X79613001Y-100335786D01*
X79606807Y-100334854D01*
X79528265Y-100321005D01*
X79524350Y-100320250D01*
X79201010Y-100252453D01*
X79194364Y-100250867D01*
X79125462Y-100232405D01*
X79122173Y-100231475D01*
X78796851Y-100134622D01*
X78789822Y-100132299D01*
X78735964Y-100112696D01*
X78733300Y-100111691D01*
X78403584Y-99983036D01*
X78396255Y-99979902D01*
X78365262Y-99965450D01*
X78363206Y-99964467D01*
X78025119Y-99799186D01*
X78016105Y-99794309D01*
X77669935Y-99588037D01*
X77661355Y-99582431D01*
X77333412Y-99348284D01*
X77325325Y-99341989D01*
X77017844Y-99081566D01*
X77010304Y-99074625D01*
X76725374Y-98789695D01*
X76718433Y-98782155D01*
X76458010Y-98474674D01*
X76451715Y-98466587D01*
X76394226Y-98386069D01*
X76217564Y-98138638D01*
X76211962Y-98130064D01*
X76174138Y-98066587D01*
X76005689Y-97783893D01*
X76000823Y-97774902D01*
X75835458Y-97436641D01*
X75834595Y-97434837D01*
X75820089Y-97403729D01*
X75816962Y-97396414D01*
X75812080Y-97383903D01*
X75688299Y-97066679D01*
X75687302Y-97064034D01*
X75667692Y-97010157D01*
X75665383Y-97003169D01*
X75568512Y-96677787D01*
X75567604Y-96674576D01*
X75549128Y-96605622D01*
X75547549Y-96599008D01*
X75479737Y-96275594D01*
X75478999Y-96271766D01*
X75465140Y-96193169D01*
X75464216Y-96187028D01*
X75424004Y-95864429D01*
X75423530Y-95859956D01*
X75416177Y-95775906D01*
X75415814Y-95770277D01*
X75400610Y-95402664D01*
X75400505Y-95397350D01*
X75401772Y-94818234D01*
X76800000Y-94818234D01*
X76800000Y-95181765D01*
X76835632Y-95543556D01*
X76906550Y-95900090D01*
X76906553Y-95900101D01*
X77012086Y-96247997D01*
X77151207Y-96583864D01*
X77151209Y-96583869D01*
X77322570Y-96904462D01*
X77322581Y-96904480D01*
X77524551Y-97206750D01*
X77711678Y-97434765D01*
X77711679Y-97434766D01*
X79205747Y-95940697D01*
X79279588Y-96042330D01*
X79457670Y-96220412D01*
X79559301Y-96294251D01*
X78065232Y-97788319D01*
X78065233Y-97788320D01*
X78293249Y-97975448D01*
X78595519Y-98177418D01*
X78595537Y-98177429D01*
X78916130Y-98348790D01*
X78916135Y-98348792D01*
X79252002Y-98487913D01*
X79599898Y-98593446D01*
X79599909Y-98593449D01*
X79956443Y-98664367D01*
X80318234Y-98700000D01*
X80681766Y-98700000D01*
X81043556Y-98664367D01*
X81400090Y-98593449D01*
X81400101Y-98593446D01*
X81747997Y-98487913D01*
X82083864Y-98348792D01*
X82083869Y-98348790D01*
X82404462Y-98177429D01*
X82404480Y-98177418D01*
X82706736Y-97975457D01*
X82706750Y-97975447D01*
X82934765Y-97788320D01*
X82934766Y-97788319D01*
X81440698Y-96294251D01*
X81542330Y-96220412D01*
X81720412Y-96042330D01*
X81794251Y-95940698D01*
X83288319Y-97434766D01*
X83288320Y-97434765D01*
X83475447Y-97206750D01*
X83475457Y-97206736D01*
X83677418Y-96904480D01*
X83677429Y-96904462D01*
X83848790Y-96583869D01*
X83848792Y-96583864D01*
X83987913Y-96247997D01*
X84093446Y-95900101D01*
X84093449Y-95900090D01*
X84164367Y-95543556D01*
X84200000Y-95181765D01*
X84200000Y-94818234D01*
X149800000Y-94818234D01*
X149800000Y-95181765D01*
X149835632Y-95543556D01*
X149906550Y-95900090D01*
X149906553Y-95900101D01*
X150012086Y-96247997D01*
X150151207Y-96583864D01*
X150151209Y-96583869D01*
X150322570Y-96904462D01*
X150322581Y-96904480D01*
X150524551Y-97206750D01*
X150711678Y-97434765D01*
X150711679Y-97434766D01*
X152205747Y-95940697D01*
X152279588Y-96042330D01*
X152457670Y-96220412D01*
X152559301Y-96294251D01*
X151065232Y-97788319D01*
X151065233Y-97788320D01*
X151293249Y-97975448D01*
X151595519Y-98177418D01*
X151595537Y-98177429D01*
X151916130Y-98348790D01*
X151916135Y-98348792D01*
X152252002Y-98487913D01*
X152599898Y-98593446D01*
X152599909Y-98593449D01*
X152956443Y-98664367D01*
X153318234Y-98700000D01*
X153681766Y-98700000D01*
X154043556Y-98664367D01*
X154400090Y-98593449D01*
X154400101Y-98593446D01*
X154747997Y-98487913D01*
X155083864Y-98348792D01*
X155083869Y-98348790D01*
X155404462Y-98177429D01*
X155404480Y-98177418D01*
X155706736Y-97975457D01*
X155706750Y-97975447D01*
X155934765Y-97788320D01*
X155934766Y-97788319D01*
X154440698Y-96294251D01*
X154542330Y-96220412D01*
X154720412Y-96042330D01*
X154794251Y-95940698D01*
X156288319Y-97434766D01*
X156288320Y-97434765D01*
X156475447Y-97206750D01*
X156475457Y-97206736D01*
X156677418Y-96904480D01*
X156677429Y-96904462D01*
X156848790Y-96583869D01*
X156848792Y-96583864D01*
X156987913Y-96247997D01*
X157093446Y-95900101D01*
X157093449Y-95900090D01*
X157164367Y-95543556D01*
X157200000Y-95181765D01*
X157200000Y-94818234D01*
X157164367Y-94456443D01*
X157093449Y-94099909D01*
X157093446Y-94099898D01*
X156987913Y-93752002D01*
X156848792Y-93416135D01*
X156848790Y-93416130D01*
X156677429Y-93095537D01*
X156677418Y-93095519D01*
X156475448Y-92793249D01*
X156288320Y-92565233D01*
X156288319Y-92565232D01*
X154794251Y-94059300D01*
X154720412Y-93957670D01*
X154542330Y-93779588D01*
X154440698Y-93705748D01*
X155934766Y-92211679D01*
X155934765Y-92211678D01*
X155706750Y-92024551D01*
X155404480Y-91822581D01*
X155404462Y-91822570D01*
X155083869Y-91651209D01*
X155083864Y-91651207D01*
X154747997Y-91512086D01*
X154400101Y-91406553D01*
X154400090Y-91406550D01*
X154043556Y-91335632D01*
X153681766Y-91300000D01*
X153318234Y-91300000D01*
X152956443Y-91335632D01*
X152599909Y-91406550D01*
X152599898Y-91406553D01*
X152252002Y-91512086D01*
X151916135Y-91651207D01*
X151916130Y-91651209D01*
X151595537Y-91822570D01*
X151595519Y-91822581D01*
X151293258Y-92024545D01*
X151293254Y-92024548D01*
X151065233Y-92211679D01*
X151065233Y-92211680D01*
X152559301Y-93705748D01*
X152457670Y-93779588D01*
X152279588Y-93957670D01*
X152205748Y-94059301D01*
X150711680Y-92565233D01*
X150711679Y-92565233D01*
X150524548Y-92793254D01*
X150524545Y-92793258D01*
X150322581Y-93095519D01*
X150322570Y-93095537D01*
X150151209Y-93416130D01*
X150151207Y-93416135D01*
X150012086Y-93752002D01*
X149906553Y-94099898D01*
X149906550Y-94099909D01*
X149835632Y-94456443D01*
X149800000Y-94818234D01*
X84200000Y-94818234D01*
X84164367Y-94456443D01*
X84093449Y-94099909D01*
X84093446Y-94099898D01*
X83987913Y-93752002D01*
X83848792Y-93416135D01*
X83848790Y-93416130D01*
X83677429Y-93095537D01*
X83677418Y-93095519D01*
X83475448Y-92793249D01*
X83288320Y-92565233D01*
X83288319Y-92565232D01*
X81794251Y-94059300D01*
X81720412Y-93957670D01*
X81542330Y-93779588D01*
X81440698Y-93705748D01*
X82934766Y-92211679D01*
X82934766Y-92211678D01*
X82848089Y-92140544D01*
X134247800Y-92140544D01*
X134247800Y-92377247D01*
X134284829Y-92611038D01*
X134284829Y-92611041D01*
X134357972Y-92836152D01*
X134357974Y-92836155D01*
X134465435Y-93047059D01*
X134604566Y-93238556D01*
X134771940Y-93405930D01*
X134963437Y-93545061D01*
X135133195Y-93631557D01*
X135174343Y-93652523D01*
X135399455Y-93725666D01*
X135399456Y-93725666D01*
X135399459Y-93725667D01*
X135633248Y-93762696D01*
X135633249Y-93762696D01*
X135869951Y-93762696D01*
X135869952Y-93762696D01*
X136103741Y-93725667D01*
X136103744Y-93725666D01*
X136103745Y-93725666D01*
X136328856Y-93652523D01*
X136328856Y-93652522D01*
X136328859Y-93652522D01*
X136539763Y-93545061D01*
X136731260Y-93405930D01*
X136898634Y-93238556D01*
X137037765Y-93047059D01*
X137145226Y-92836155D01*
X137218371Y-92611037D01*
X137255400Y-92377248D01*
X137255400Y-92140544D01*
X145677800Y-92140544D01*
X145677800Y-92377247D01*
X145714829Y-92611038D01*
X145714829Y-92611041D01*
X145787972Y-92836152D01*
X145787974Y-92836155D01*
X145895435Y-93047059D01*
X146034566Y-93238556D01*
X146201940Y-93405930D01*
X146393437Y-93545061D01*
X146563195Y-93631557D01*
X146604343Y-93652523D01*
X146829455Y-93725666D01*
X146829456Y-93725666D01*
X146829459Y-93725667D01*
X147063248Y-93762696D01*
X147063249Y-93762696D01*
X147299951Y-93762696D01*
X147299952Y-93762696D01*
X147533741Y-93725667D01*
X147533744Y-93725666D01*
X147533745Y-93725666D01*
X147758856Y-93652523D01*
X147758856Y-93652522D01*
X147758859Y-93652522D01*
X147969763Y-93545061D01*
X148161260Y-93405930D01*
X148328634Y-93238556D01*
X148467765Y-93047059D01*
X148575226Y-92836155D01*
X148648371Y-92611037D01*
X148685400Y-92377248D01*
X148685400Y-92140544D01*
X148648371Y-91906755D01*
X148648370Y-91906751D01*
X148648370Y-91906750D01*
X148575227Y-91681639D01*
X148467764Y-91470732D01*
X148421133Y-91406550D01*
X148328634Y-91279236D01*
X148161260Y-91111862D01*
X147969763Y-90972731D01*
X147758856Y-90865268D01*
X147533744Y-90792125D01*
X147358399Y-90764353D01*
X147299952Y-90755096D01*
X147063248Y-90755096D01*
X146985318Y-90767439D01*
X146829457Y-90792125D01*
X146829454Y-90792125D01*
X146604343Y-90865268D01*
X146393436Y-90972731D01*
X146284180Y-91052110D01*
X146201940Y-91111862D01*
X146201938Y-91111864D01*
X146201937Y-91111864D01*
X146034568Y-91279233D01*
X146034568Y-91279234D01*
X146034566Y-91279236D01*
X146019480Y-91300000D01*
X145895435Y-91470732D01*
X145787972Y-91681639D01*
X145714829Y-91906750D01*
X145714829Y-91906753D01*
X145677800Y-92140544D01*
X137255400Y-92140544D01*
X137218371Y-91906755D01*
X137218370Y-91906751D01*
X137218370Y-91906750D01*
X137145227Y-91681639D01*
X137037764Y-91470732D01*
X136991133Y-91406550D01*
X136898634Y-91279236D01*
X136731260Y-91111862D01*
X136539763Y-90972731D01*
X136328856Y-90865268D01*
X136103744Y-90792125D01*
X135928399Y-90764353D01*
X135869952Y-90755096D01*
X135633248Y-90755096D01*
X135555318Y-90767439D01*
X135399457Y-90792125D01*
X135399454Y-90792125D01*
X135174343Y-90865268D01*
X134963436Y-90972731D01*
X134854180Y-91052110D01*
X134771940Y-91111862D01*
X134771938Y-91111864D01*
X134771937Y-91111864D01*
X134604568Y-91279233D01*
X134604568Y-91279234D01*
X134604566Y-91279236D01*
X134589480Y-91300000D01*
X134465435Y-91470732D01*
X134357972Y-91681639D01*
X134284829Y-91906750D01*
X134284829Y-91906753D01*
X134247800Y-92140544D01*
X82848089Y-92140544D01*
X82706750Y-92024551D01*
X82404480Y-91822581D01*
X82404462Y-91822570D01*
X82083869Y-91651209D01*
X82083864Y-91651207D01*
X81747997Y-91512086D01*
X81400101Y-91406553D01*
X81400090Y-91406550D01*
X81043556Y-91335632D01*
X80681766Y-91300000D01*
X80318234Y-91300000D01*
X79956443Y-91335632D01*
X79599909Y-91406550D01*
X79599898Y-91406553D01*
X79252002Y-91512086D01*
X78916135Y-91651207D01*
X78916130Y-91651209D01*
X78595537Y-91822570D01*
X78595519Y-91822581D01*
X78293258Y-92024545D01*
X78293254Y-92024548D01*
X78065233Y-92211679D01*
X78065233Y-92211680D01*
X79559301Y-93705748D01*
X79457670Y-93779588D01*
X79279588Y-93957670D01*
X79205748Y-94059301D01*
X77711680Y-92565233D01*
X77711679Y-92565233D01*
X77524548Y-92793254D01*
X77524545Y-92793258D01*
X77322581Y-93095519D01*
X77322570Y-93095537D01*
X77151209Y-93416130D01*
X77151207Y-93416135D01*
X77012086Y-93752002D01*
X76906553Y-94099898D01*
X76906550Y-94099909D01*
X76835632Y-94456443D01*
X76800000Y-94818234D01*
X75401772Y-94818234D01*
X75414590Y-88960212D01*
X134497800Y-88960212D01*
X134497800Y-89157563D01*
X134528673Y-89352488D01*
X134528673Y-89352491D01*
X134589656Y-89540177D01*
X134589658Y-89540180D01*
X134679254Y-89716022D01*
X134795255Y-89875684D01*
X134934804Y-90015233D01*
X135094466Y-90131234D01*
X135270308Y-90220830D01*
X135270310Y-90220831D01*
X135457997Y-90281814D01*
X135457998Y-90281814D01*
X135458001Y-90281815D01*
X135652924Y-90312688D01*
X135652925Y-90312688D01*
X135850275Y-90312688D01*
X135850276Y-90312688D01*
X136045199Y-90281815D01*
X136045202Y-90281814D01*
X136045203Y-90281814D01*
X136232889Y-90220831D01*
X136232889Y-90220830D01*
X136232892Y-90220830D01*
X136408734Y-90131234D01*
X136568396Y-90015233D01*
X136707945Y-89875684D01*
X136823946Y-89716022D01*
X136913542Y-89540180D01*
X136974527Y-89352487D01*
X137005400Y-89157564D01*
X137005400Y-88960212D01*
X145927800Y-88960212D01*
X145927800Y-89157563D01*
X145958673Y-89352488D01*
X145958673Y-89352491D01*
X146019656Y-89540177D01*
X146019658Y-89540180D01*
X146109254Y-89716022D01*
X146225255Y-89875684D01*
X146364804Y-90015233D01*
X146524466Y-90131234D01*
X146700308Y-90220830D01*
X146700310Y-90220831D01*
X146887997Y-90281814D01*
X146887998Y-90281814D01*
X146888001Y-90281815D01*
X147082924Y-90312688D01*
X147082925Y-90312688D01*
X147280275Y-90312688D01*
X147280276Y-90312688D01*
X147475199Y-90281815D01*
X147475202Y-90281814D01*
X147475203Y-90281814D01*
X147662889Y-90220831D01*
X147662889Y-90220830D01*
X147662892Y-90220830D01*
X147838734Y-90131234D01*
X147998396Y-90015233D01*
X148137945Y-89875684D01*
X148253946Y-89716022D01*
X148343542Y-89540180D01*
X148404527Y-89352487D01*
X148435400Y-89157564D01*
X148435400Y-88960212D01*
X148404527Y-88765289D01*
X148404526Y-88765285D01*
X148404526Y-88765284D01*
X148343543Y-88577598D01*
X148253945Y-88401753D01*
X148137945Y-88242092D01*
X147998396Y-88102543D01*
X147838734Y-87986542D01*
X147662889Y-87896944D01*
X147475202Y-87835961D01*
X147329006Y-87812806D01*
X147280276Y-87805088D01*
X147082924Y-87805088D01*
X147017949Y-87815379D01*
X146887999Y-87835961D01*
X146887996Y-87835961D01*
X146700310Y-87896944D01*
X146524465Y-87986542D01*
X146364801Y-88102545D01*
X146225257Y-88242089D01*
X146109254Y-88401753D01*
X146019656Y-88577598D01*
X145958673Y-88765284D01*
X145958673Y-88765287D01*
X145927800Y-88960212D01*
X137005400Y-88960212D01*
X136974527Y-88765289D01*
X136974526Y-88765285D01*
X136974526Y-88765284D01*
X136913543Y-88577598D01*
X136823945Y-88401753D01*
X136707945Y-88242092D01*
X136568396Y-88102543D01*
X136408734Y-87986542D01*
X136232889Y-87896944D01*
X136045202Y-87835961D01*
X135899006Y-87812806D01*
X135850276Y-87805088D01*
X135652924Y-87805088D01*
X135587949Y-87815379D01*
X135457999Y-87835961D01*
X135457996Y-87835961D01*
X135270310Y-87896944D01*
X135094465Y-87986542D01*
X134934801Y-88102545D01*
X134795257Y-88242089D01*
X134679254Y-88401753D01*
X134589656Y-88577598D01*
X134528673Y-88765284D01*
X134528673Y-88765287D01*
X134497800Y-88960212D01*
X75414590Y-88960212D01*
X75423445Y-84913389D01*
X87899500Y-84913389D01*
X87899500Y-85086611D01*
X87926598Y-85257701D01*
X87980127Y-85422445D01*
X88058768Y-85576788D01*
X88160586Y-85716928D01*
X88283072Y-85839414D01*
X88423212Y-85941232D01*
X88577555Y-86019873D01*
X88742299Y-86073402D01*
X88913389Y-86100500D01*
X88913390Y-86100500D01*
X89086610Y-86100500D01*
X89086611Y-86100500D01*
X89257701Y-86073402D01*
X89422445Y-86019873D01*
X89576788Y-85941232D01*
X89716928Y-85839414D01*
X89839414Y-85716928D01*
X89941232Y-85576788D01*
X90019873Y-85422445D01*
X90073402Y-85257701D01*
X90100500Y-85086611D01*
X90100500Y-84913389D01*
X90073402Y-84742299D01*
X90019873Y-84577555D01*
X89941232Y-84423212D01*
X89839414Y-84283072D01*
X89716928Y-84160586D01*
X89576788Y-84058768D01*
X89422445Y-83980127D01*
X89257701Y-83926598D01*
X89257699Y-83926597D01*
X89257698Y-83926597D01*
X89126271Y-83905781D01*
X89086611Y-83899500D01*
X88913389Y-83899500D01*
X88873728Y-83905781D01*
X88742302Y-83926597D01*
X88577552Y-83980128D01*
X88423211Y-84058768D01*
X88343256Y-84116859D01*
X88283072Y-84160586D01*
X88283070Y-84160588D01*
X88283069Y-84160588D01*
X88160588Y-84283069D01*
X88160588Y-84283070D01*
X88160586Y-84283072D01*
X88117100Y-84342925D01*
X88058768Y-84423211D01*
X87980128Y-84577552D01*
X87926597Y-84742302D01*
X87900315Y-84908246D01*
X87899500Y-84913389D01*
X75423445Y-84913389D01*
X75464551Y-66128031D01*
X77899500Y-66128031D01*
X77899500Y-66471969D01*
X77900304Y-66480128D01*
X77933210Y-66814249D01*
X78000308Y-67151572D01*
X78100150Y-67480706D01*
X78231770Y-67798464D01*
X78231772Y-67798469D01*
X78393893Y-68101775D01*
X78393904Y-68101793D01*
X78584975Y-68387751D01*
X78584985Y-68387765D01*
X78803176Y-68653632D01*
X79046367Y-68896823D01*
X79046372Y-68896827D01*
X79046373Y-68896828D01*
X79312240Y-69115019D01*
X79598213Y-69306100D01*
X79598222Y-69306105D01*
X79598224Y-69306106D01*
X79901530Y-69468227D01*
X79901532Y-69468227D01*
X79901538Y-69468231D01*
X80219295Y-69599850D01*
X80548422Y-69699690D01*
X80885750Y-69766789D01*
X81228031Y-69800500D01*
X81228034Y-69800500D01*
X81571966Y-69800500D01*
X81571969Y-69800500D01*
X81914250Y-69766789D01*
X82029439Y-69743876D01*
X82099029Y-69750103D01*
X82154206Y-69792965D01*
X82177451Y-69858855D01*
X82161384Y-69926852D01*
X82141310Y-69953174D01*
X81143565Y-70950920D01*
X81035486Y-71058998D01*
X81035481Y-71059004D01*
X80959061Y-71191367D01*
X80959060Y-71191371D01*
X80941287Y-71257701D01*
X80941287Y-71257702D01*
X80941286Y-71257701D01*
X80926841Y-71311616D01*
X80926840Y-71311621D01*
X80919500Y-71339011D01*
X80919500Y-75940400D01*
X80899815Y-76007439D01*
X80851795Y-76050885D01*
X80667179Y-76144951D01*
X80495213Y-76269890D01*
X80344890Y-76420213D01*
X80219951Y-76592179D01*
X80123444Y-76781585D01*
X80057753Y-76983760D01*
X80041183Y-77088379D01*
X80024500Y-77193713D01*
X80024500Y-77406287D01*
X80057754Y-77616243D01*
X80118234Y-77802381D01*
X80123444Y-77818414D01*
X80219951Y-78007820D01*
X80344890Y-78179786D01*
X80495209Y-78330105D01*
X80495214Y-78330109D01*
X80659793Y-78449682D01*
X80702459Y-78505011D01*
X80708438Y-78574625D01*
X80675833Y-78636420D01*
X80659793Y-78650318D01*
X80495214Y-78769890D01*
X80495209Y-78769894D01*
X80344890Y-78920213D01*
X80219951Y-79092179D01*
X80123444Y-79281585D01*
X80057753Y-79483760D01*
X80041183Y-79588379D01*
X80024500Y-79693713D01*
X80024500Y-79906287D01*
X80057754Y-80116243D01*
X80105269Y-80262479D01*
X80123444Y-80318414D01*
X80219951Y-80507820D01*
X80344890Y-80679786D01*
X80484068Y-80818964D01*
X80517553Y-80880287D01*
X80512569Y-80949979D01*
X80470697Y-81005912D01*
X80461484Y-81012183D01*
X80306659Y-81107680D01*
X80306655Y-81107683D01*
X80182684Y-81231654D01*
X80090643Y-81380875D01*
X80090641Y-81380880D01*
X80035494Y-81547302D01*
X80035493Y-81547309D01*
X80025000Y-81650013D01*
X80025000Y-82050000D01*
X81095854Y-82050000D01*
X81057370Y-82116657D01*
X81025000Y-82237465D01*
X81025000Y-82362535D01*
X81057370Y-82483343D01*
X81095854Y-82550000D01*
X80025001Y-82550000D01*
X80025001Y-82949986D01*
X80035494Y-83052697D01*
X80090641Y-83219119D01*
X80090643Y-83219124D01*
X80182684Y-83368345D01*
X80306654Y-83492315D01*
X80455875Y-83584356D01*
X80455880Y-83584358D01*
X80622302Y-83639505D01*
X80622309Y-83639506D01*
X80725019Y-83649999D01*
X81249999Y-83649999D01*
X81250000Y-83649998D01*
X81250000Y-82704145D01*
X81316657Y-82742630D01*
X81437465Y-82775000D01*
X81562535Y-82775000D01*
X81683343Y-82742630D01*
X81750000Y-82704145D01*
X81750000Y-83649999D01*
X82274972Y-83649999D01*
X82274986Y-83649998D01*
X82377697Y-83639505D01*
X82544119Y-83584358D01*
X82544124Y-83584356D01*
X82693345Y-83492315D01*
X82817315Y-83368345D01*
X82909356Y-83219124D01*
X82909358Y-83219119D01*
X82964505Y-83052697D01*
X82964506Y-83052690D01*
X82974999Y-82949986D01*
X82975000Y-82949973D01*
X82975000Y-82550000D01*
X81904146Y-82550000D01*
X81942630Y-82483343D01*
X81975000Y-82362535D01*
X81975000Y-82237465D01*
X81942630Y-82116657D01*
X81904146Y-82050000D01*
X82974999Y-82050000D01*
X82974999Y-81650028D01*
X82974998Y-81650013D01*
X82964505Y-81547302D01*
X82956643Y-81523576D01*
X107419500Y-81523576D01*
X107419500Y-82623576D01*
X107419500Y-83176424D01*
X107459060Y-83324065D01*
X107535484Y-83456435D01*
X107535485Y-83456436D01*
X107535486Y-83456437D01*
X107853860Y-83774811D01*
X107887345Y-83836134D01*
X107887796Y-83838300D01*
X107902379Y-83911614D01*
X107902381Y-83911620D01*
X107957069Y-84043650D01*
X107957074Y-84043659D01*
X108036467Y-84162478D01*
X108036470Y-84162482D01*
X108137517Y-84263529D01*
X108137521Y-84263532D01*
X108256340Y-84342925D01*
X108256346Y-84342928D01*
X108256347Y-84342929D01*
X108388380Y-84397619D01*
X108388384Y-84397619D01*
X108388385Y-84397620D01*
X108528542Y-84425500D01*
X108528545Y-84425500D01*
X108671457Y-84425500D01*
X108765751Y-84406742D01*
X108811620Y-84397619D01*
X108943653Y-84342929D01*
X109062479Y-84263532D01*
X109163532Y-84162479D01*
X109242929Y-84043653D01*
X109297619Y-83911620D01*
X109306965Y-83864634D01*
X109325500Y-83771457D01*
X109325500Y-83628542D01*
X109297620Y-83488385D01*
X109297619Y-83488384D01*
X109297619Y-83488380D01*
X109242929Y-83356347D01*
X109242928Y-83356346D01*
X109242925Y-83356340D01*
X109163532Y-83237521D01*
X109163529Y-83237517D01*
X109062482Y-83136470D01*
X109062478Y-83136467D01*
X108943659Y-83057074D01*
X108943650Y-83057069D01*
X108811620Y-83002381D01*
X108811614Y-83002379D01*
X108738300Y-82987796D01*
X108721543Y-82979030D01*
X108703065Y-82975011D01*
X108678028Y-82956268D01*
X108676389Y-82955411D01*
X108674811Y-82953860D01*
X108616819Y-82895868D01*
X108583334Y-82834545D01*
X108580500Y-82808187D01*
X108580500Y-82594250D01*
X143302500Y-82594250D01*
X143302500Y-82823549D01*
X143322971Y-82979030D01*
X143332428Y-83050865D01*
X143334091Y-83057071D01*
X143391771Y-83272338D01*
X143479511Y-83484160D01*
X143479515Y-83484170D01*
X143594155Y-83682732D01*
X143733733Y-83864634D01*
X143733739Y-83864641D01*
X143895858Y-84026760D01*
X143895865Y-84026766D01*
X144077767Y-84166344D01*
X144276329Y-84280984D01*
X144276330Y-84280984D01*
X144276333Y-84280986D01*
X144417553Y-84339481D01*
X144488161Y-84368728D01*
X144488162Y-84368728D01*
X144488164Y-84368729D01*
X144709635Y-84428072D01*
X144936958Y-84458000D01*
X144936965Y-84458000D01*
X145166235Y-84458000D01*
X145166242Y-84458000D01*
X145393565Y-84428072D01*
X145615036Y-84368729D01*
X145826867Y-84280986D01*
X146025433Y-84166344D01*
X146207336Y-84026765D01*
X146369465Y-83864636D01*
X146509044Y-83682733D01*
X146623686Y-83484167D01*
X146711429Y-83272336D01*
X146770772Y-83050865D01*
X146800700Y-82823542D01*
X146800700Y-82594258D01*
X146770772Y-82366935D01*
X146711429Y-82145464D01*
X146623686Y-81933633D01*
X146569887Y-81840451D01*
X146509044Y-81735067D01*
X146369466Y-81553165D01*
X146369460Y-81553158D01*
X146207341Y-81391039D01*
X146207334Y-81391033D01*
X146025432Y-81251455D01*
X145826870Y-81136815D01*
X145826860Y-81136811D01*
X145615038Y-81049071D01*
X145504300Y-81019399D01*
X145393565Y-80989728D01*
X145343048Y-80983077D01*
X145166249Y-80959800D01*
X145166242Y-80959800D01*
X144936958Y-80959800D01*
X144936950Y-80959800D01*
X144734893Y-80986402D01*
X144709635Y-80989728D01*
X144654267Y-81004563D01*
X144488161Y-81049071D01*
X144276339Y-81136811D01*
X144276329Y-81136815D01*
X144077767Y-81251455D01*
X143895865Y-81391033D01*
X143895858Y-81391039D01*
X143733739Y-81553158D01*
X143733733Y-81553165D01*
X143594155Y-81735067D01*
X143479515Y-81933629D01*
X143479511Y-81933639D01*
X143391771Y-82145461D01*
X143332428Y-82366936D01*
X143302500Y-82594250D01*
X108580500Y-82594250D01*
X108580500Y-81891812D01*
X108600185Y-81824773D01*
X108616814Y-81804136D01*
X109874813Y-80546136D01*
X109936134Y-80512653D01*
X109938151Y-80512232D01*
X110011620Y-80497619D01*
X110143653Y-80442929D01*
X110262479Y-80363532D01*
X110363532Y-80262479D01*
X110442929Y-80143653D01*
X110497619Y-80011620D01*
X110517626Y-79911041D01*
X110525500Y-79871457D01*
X110525500Y-79728542D01*
X110497620Y-79588385D01*
X110497619Y-79588381D01*
X110497619Y-79588380D01*
X110442929Y-79456347D01*
X110442928Y-79456346D01*
X110442925Y-79456340D01*
X110432370Y-79440544D01*
X134247800Y-79440544D01*
X134247800Y-79677247D01*
X134284829Y-79911038D01*
X134284829Y-79911041D01*
X134357972Y-80136152D01*
X134361794Y-80143653D01*
X134465435Y-80347059D01*
X134604566Y-80538556D01*
X134771940Y-80705930D01*
X134963437Y-80845061D01*
X135169350Y-80949979D01*
X135174343Y-80952523D01*
X135399455Y-81025666D01*
X135399456Y-81025666D01*
X135399459Y-81025667D01*
X135633248Y-81062696D01*
X135633249Y-81062696D01*
X135869951Y-81062696D01*
X135869952Y-81062696D01*
X136103741Y-81025667D01*
X136103744Y-81025666D01*
X136103745Y-81025666D01*
X136328856Y-80952523D01*
X136328856Y-80952522D01*
X136328859Y-80952522D01*
X136539763Y-80845061D01*
X136731260Y-80705930D01*
X136898634Y-80538556D01*
X137037765Y-80347059D01*
X137145226Y-80136155D01*
X137218371Y-79911037D01*
X137255400Y-79677248D01*
X137255400Y-79440544D01*
X145677800Y-79440544D01*
X145677800Y-79677247D01*
X145714829Y-79911038D01*
X145714829Y-79911041D01*
X145787972Y-80136152D01*
X145791794Y-80143653D01*
X145895435Y-80347059D01*
X146034566Y-80538556D01*
X146201940Y-80705930D01*
X146393437Y-80845061D01*
X146599350Y-80949979D01*
X146604343Y-80952523D01*
X146829455Y-81025666D01*
X146829456Y-81025666D01*
X146829459Y-81025667D01*
X147063248Y-81062696D01*
X147063249Y-81062696D01*
X147299951Y-81062696D01*
X147299952Y-81062696D01*
X147533741Y-81025667D01*
X147533744Y-81025666D01*
X147533745Y-81025666D01*
X147758856Y-80952523D01*
X147758856Y-80952522D01*
X147758859Y-80952522D01*
X147969763Y-80845061D01*
X148161260Y-80705930D01*
X148328634Y-80538556D01*
X148467765Y-80347059D01*
X148575226Y-80136155D01*
X148648371Y-79911037D01*
X148685400Y-79677248D01*
X148685400Y-79440544D01*
X148648371Y-79206755D01*
X148648370Y-79206751D01*
X148648370Y-79206750D01*
X148575227Y-78981639D01*
X148565466Y-78962482D01*
X148467765Y-78770733D01*
X148328634Y-78579236D01*
X148161260Y-78411862D01*
X147969763Y-78272731D01*
X147758856Y-78165268D01*
X147533744Y-78092125D01*
X147358399Y-78064353D01*
X147299952Y-78055096D01*
X147063248Y-78055096D01*
X146985318Y-78067439D01*
X146829457Y-78092125D01*
X146829454Y-78092125D01*
X146604343Y-78165268D01*
X146393436Y-78272731D01*
X146314463Y-78330109D01*
X146201940Y-78411862D01*
X146201938Y-78411864D01*
X146201937Y-78411864D01*
X146034568Y-78579233D01*
X146034568Y-78579234D01*
X146034566Y-78579236D01*
X145986823Y-78644949D01*
X145895435Y-78770732D01*
X145787972Y-78981639D01*
X145714829Y-79206750D01*
X145714829Y-79206753D01*
X145677800Y-79440544D01*
X137255400Y-79440544D01*
X137218371Y-79206755D01*
X137218370Y-79206751D01*
X137218370Y-79206750D01*
X137145227Y-78981639D01*
X137135466Y-78962482D01*
X137037765Y-78770733D01*
X136898634Y-78579236D01*
X136731260Y-78411862D01*
X136539763Y-78272731D01*
X136328856Y-78165268D01*
X136103744Y-78092125D01*
X135928399Y-78064353D01*
X135869952Y-78055096D01*
X135633248Y-78055096D01*
X135555318Y-78067439D01*
X135399457Y-78092125D01*
X135399454Y-78092125D01*
X135174343Y-78165268D01*
X134963436Y-78272731D01*
X134884463Y-78330109D01*
X134771940Y-78411862D01*
X134771938Y-78411864D01*
X134771937Y-78411864D01*
X134604568Y-78579233D01*
X134604568Y-78579234D01*
X134604566Y-78579236D01*
X134556823Y-78644949D01*
X134465435Y-78770732D01*
X134357972Y-78981639D01*
X134284829Y-79206750D01*
X134284829Y-79206753D01*
X134247800Y-79440544D01*
X110432370Y-79440544D01*
X110363532Y-79337521D01*
X110363529Y-79337517D01*
X110262482Y-79236470D01*
X110262478Y-79236467D01*
X110143659Y-79157074D01*
X110143650Y-79157069D01*
X110011620Y-79102381D01*
X110011614Y-79102379D01*
X109871457Y-79074500D01*
X109871455Y-79074500D01*
X109728545Y-79074500D01*
X109728543Y-79074500D01*
X109588385Y-79102379D01*
X109588379Y-79102381D01*
X109456349Y-79157069D01*
X109456340Y-79157074D01*
X109337521Y-79236467D01*
X109337517Y-79236470D01*
X109236470Y-79337517D01*
X109236467Y-79337521D01*
X109157074Y-79456340D01*
X109157069Y-79456349D01*
X109102380Y-79588381D01*
X109102379Y-79588385D01*
X109087796Y-79661698D01*
X109055411Y-79723609D01*
X109053860Y-79725187D01*
X107643565Y-81135484D01*
X107535486Y-81243562D01*
X107535482Y-81243568D01*
X107459061Y-81375932D01*
X107459060Y-81375935D01*
X107419500Y-81523576D01*
X82956643Y-81523576D01*
X82909358Y-81380880D01*
X82909356Y-81380875D01*
X82817315Y-81231654D01*
X82693345Y-81107684D01*
X82538515Y-81012184D01*
X82491791Y-80960236D01*
X82480568Y-80891273D01*
X82508412Y-80827191D01*
X82515909Y-80818986D01*
X82655104Y-80679792D01*
X82780051Y-80507816D01*
X82876557Y-80318412D01*
X82942246Y-80116243D01*
X82975500Y-79906287D01*
X82975500Y-79693713D01*
X82942246Y-79483757D01*
X82876557Y-79281588D01*
X82780051Y-79092184D01*
X82780049Y-79092181D01*
X82780048Y-79092179D01*
X82655109Y-78920213D01*
X82504792Y-78769896D01*
X82424573Y-78711614D01*
X82340204Y-78650316D01*
X82297540Y-78594989D01*
X82291561Y-78525376D01*
X82324166Y-78463580D01*
X82340199Y-78449686D01*
X82504792Y-78330104D01*
X82655104Y-78179792D01*
X82655106Y-78179788D01*
X82655109Y-78179786D01*
X82780048Y-78007820D01*
X82780047Y-78007820D01*
X82780051Y-78007816D01*
X82876557Y-77818412D01*
X82942246Y-77616243D01*
X82975500Y-77406287D01*
X82975500Y-77371457D01*
X95174499Y-77371457D01*
X95202379Y-77511614D01*
X95202381Y-77511620D01*
X95257069Y-77643650D01*
X95257074Y-77643659D01*
X95336467Y-77762478D01*
X95336470Y-77762482D01*
X95437517Y-77863529D01*
X95437521Y-77863532D01*
X95556340Y-77942925D01*
X95556346Y-77942928D01*
X95556347Y-77942929D01*
X95688380Y-77997619D01*
X95761698Y-78012202D01*
X95823607Y-78044585D01*
X95825187Y-78046138D01*
X96353860Y-78574811D01*
X96387345Y-78636134D01*
X96387796Y-78638300D01*
X96402379Y-78711614D01*
X96402381Y-78711620D01*
X96457069Y-78843650D01*
X96457074Y-78843659D01*
X96536467Y-78962478D01*
X96536470Y-78962482D01*
X96637517Y-79063529D01*
X96637521Y-79063532D01*
X96756340Y-79142925D01*
X96756346Y-79142928D01*
X96756347Y-79142929D01*
X96888380Y-79197619D01*
X96888384Y-79197619D01*
X96888385Y-79197620D01*
X97028542Y-79225500D01*
X97028545Y-79225500D01*
X97171457Y-79225500D01*
X97265751Y-79206742D01*
X97311620Y-79197619D01*
X97443653Y-79142929D01*
X97562479Y-79063532D01*
X97663532Y-78962479D01*
X97742929Y-78843653D01*
X97797619Y-78711620D01*
X97810881Y-78644949D01*
X97825500Y-78571457D01*
X97825500Y-78428542D01*
X97797620Y-78288385D01*
X97797619Y-78288384D01*
X97797619Y-78288380D01*
X97742929Y-78156347D01*
X97742928Y-78156346D01*
X97742925Y-78156340D01*
X97663532Y-78037521D01*
X97663529Y-78037517D01*
X97562482Y-77936470D01*
X97562478Y-77936467D01*
X97443659Y-77857074D01*
X97443650Y-77857069D01*
X97311620Y-77802381D01*
X97311614Y-77802379D01*
X97238300Y-77787796D01*
X97176389Y-77755411D01*
X97174811Y-77753860D01*
X96646138Y-77225187D01*
X96612653Y-77163864D01*
X96612226Y-77161818D01*
X96597619Y-77088380D01*
X96542929Y-76956347D01*
X96542928Y-76956346D01*
X96542925Y-76956340D01*
X96463532Y-76837521D01*
X96463529Y-76837517D01*
X96362482Y-76736470D01*
X96362478Y-76736467D01*
X96243659Y-76657074D01*
X96243650Y-76657069D01*
X96111620Y-76602381D01*
X96111614Y-76602379D01*
X95971457Y-76574500D01*
X95971455Y-76574500D01*
X95828545Y-76574500D01*
X95828543Y-76574500D01*
X95688385Y-76602379D01*
X95688379Y-76602381D01*
X95556349Y-76657069D01*
X95556340Y-76657074D01*
X95437521Y-76736467D01*
X95437517Y-76736470D01*
X95336470Y-76837517D01*
X95336467Y-76837521D01*
X95257074Y-76956340D01*
X95257069Y-76956349D01*
X95202381Y-77088379D01*
X95202379Y-77088385D01*
X95174500Y-77228542D01*
X95174500Y-77228545D01*
X95174500Y-77371455D01*
X95174500Y-77371457D01*
X95174499Y-77371457D01*
X82975500Y-77371457D01*
X82975500Y-77193713D01*
X82942246Y-76983757D01*
X82876557Y-76781588D01*
X82780051Y-76592184D01*
X82780049Y-76592181D01*
X82780048Y-76592179D01*
X82655109Y-76420213D01*
X82504786Y-76269890D01*
X82332820Y-76144951D01*
X82148205Y-76050885D01*
X82097409Y-76002910D01*
X82080500Y-75940400D01*
X82080500Y-75513389D01*
X106599500Y-75513389D01*
X106599500Y-75686611D01*
X106626598Y-75857701D01*
X106680127Y-76022445D01*
X106758768Y-76176788D01*
X106860586Y-76316928D01*
X106983072Y-76439414D01*
X107123212Y-76541232D01*
X107277555Y-76619873D01*
X107442299Y-76673402D01*
X107613389Y-76700500D01*
X107613390Y-76700500D01*
X107786610Y-76700500D01*
X107786611Y-76700500D01*
X107957701Y-76673402D01*
X108122445Y-76619873D01*
X108276788Y-76541232D01*
X108416928Y-76439414D01*
X108539414Y-76316928D01*
X108641232Y-76176788D01*
X108719873Y-76022445D01*
X108773402Y-75857701D01*
X108800500Y-75686611D01*
X108800500Y-75513389D01*
X108773402Y-75342299D01*
X108719873Y-75177555D01*
X108641232Y-75023212D01*
X108539414Y-74883072D01*
X108416928Y-74760586D01*
X108276788Y-74658768D01*
X108122445Y-74580127D01*
X107957701Y-74526598D01*
X107957699Y-74526597D01*
X107957698Y-74526597D01*
X107826271Y-74505781D01*
X107786611Y-74499500D01*
X107613389Y-74499500D01*
X107573728Y-74505781D01*
X107442302Y-74526597D01*
X107277552Y-74580128D01*
X107123211Y-74658768D01*
X107043256Y-74716859D01*
X106983072Y-74760586D01*
X106983070Y-74760588D01*
X106983069Y-74760588D01*
X106860588Y-74883069D01*
X106860588Y-74883070D01*
X106860586Y-74883072D01*
X106816859Y-74943256D01*
X106758768Y-75023211D01*
X106680128Y-75177552D01*
X106626597Y-75342302D01*
X106599500Y-75513389D01*
X82080500Y-75513389D01*
X82080500Y-73813389D01*
X118699500Y-73813389D01*
X118699500Y-73986611D01*
X118726598Y-74157701D01*
X118780127Y-74322445D01*
X118858768Y-74476788D01*
X118960586Y-74616928D01*
X119083072Y-74739414D01*
X119223212Y-74841232D01*
X119377555Y-74919873D01*
X119542299Y-74973402D01*
X119713389Y-75000500D01*
X119713390Y-75000500D01*
X119886610Y-75000500D01*
X119886611Y-75000500D01*
X120057701Y-74973402D01*
X120222445Y-74919873D01*
X120376788Y-74841232D01*
X120516928Y-74739414D01*
X120639414Y-74616928D01*
X120741232Y-74476788D01*
X120819873Y-74322445D01*
X120873402Y-74157701D01*
X120900500Y-73986611D01*
X120900500Y-73813389D01*
X120873402Y-73642299D01*
X120819873Y-73477555D01*
X120741232Y-73323212D01*
X120639414Y-73183072D01*
X120516928Y-73060586D01*
X120376788Y-72958768D01*
X120222445Y-72880127D01*
X120057701Y-72826598D01*
X120057699Y-72826597D01*
X120057698Y-72826597D01*
X119926271Y-72805781D01*
X119886611Y-72799500D01*
X119713389Y-72799500D01*
X119673728Y-72805781D01*
X119542302Y-72826597D01*
X119377552Y-72880128D01*
X119223211Y-72958768D01*
X119176192Y-72992930D01*
X119083072Y-73060586D01*
X119083070Y-73060588D01*
X119083069Y-73060588D01*
X118960588Y-73183069D01*
X118960588Y-73183070D01*
X118960586Y-73183072D01*
X118916859Y-73243256D01*
X118858768Y-73323211D01*
X118780128Y-73477552D01*
X118726597Y-73642302D01*
X118699500Y-73813389D01*
X82080500Y-73813389D01*
X82080500Y-71707249D01*
X82100185Y-71640210D01*
X82116819Y-71619568D01*
X82564930Y-71171457D01*
X90274499Y-71171457D01*
X90302379Y-71311614D01*
X90302380Y-71311616D01*
X90302381Y-71311620D01*
X90323884Y-71363532D01*
X90357069Y-71443650D01*
X90357074Y-71443659D01*
X90436467Y-71562478D01*
X90436470Y-71562482D01*
X90537517Y-71663529D01*
X90537521Y-71663532D01*
X90656340Y-71742925D01*
X90656349Y-71742930D01*
X90662597Y-71745518D01*
X90788380Y-71797619D01*
X90788384Y-71797619D01*
X90788385Y-71797620D01*
X90928542Y-71825500D01*
X90928545Y-71825500D01*
X90953896Y-71825500D01*
X90985987Y-71829725D01*
X91012418Y-71836806D01*
X91022146Y-71839413D01*
X91022148Y-71839414D01*
X91039566Y-71844081D01*
X91104575Y-71861500D01*
X91104576Y-71861500D01*
X91104577Y-71861500D01*
X96295423Y-71861500D01*
X96295425Y-71861500D01*
X96377851Y-71839414D01*
X96443065Y-71821940D01*
X96575435Y-71745516D01*
X96683516Y-71637435D01*
X96774813Y-71546136D01*
X96836134Y-71512653D01*
X96838171Y-71512228D01*
X96911620Y-71497619D01*
X97043653Y-71442929D01*
X97162479Y-71363532D01*
X97263532Y-71262479D01*
X97342929Y-71143653D01*
X97397619Y-71011620D01*
X97417159Y-70913389D01*
X106399500Y-70913389D01*
X106399500Y-71086611D01*
X106426598Y-71257701D01*
X106480127Y-71422445D01*
X106558768Y-71576788D01*
X106660586Y-71716928D01*
X106783072Y-71839414D01*
X106923212Y-71941232D01*
X107077555Y-72019873D01*
X107242299Y-72073402D01*
X107282642Y-72079791D01*
X107345774Y-72109719D01*
X107382706Y-72169030D01*
X107384861Y-72226454D01*
X107374500Y-72278545D01*
X107374500Y-72421455D01*
X107374500Y-72421457D01*
X107374499Y-72421457D01*
X107402379Y-72561614D01*
X107402381Y-72561620D01*
X107457069Y-72693650D01*
X107457074Y-72693659D01*
X107536467Y-72812478D01*
X107536470Y-72812482D01*
X107637517Y-72913529D01*
X107637521Y-72913532D01*
X107756340Y-72992925D01*
X107756346Y-72992928D01*
X107756347Y-72992929D01*
X107888380Y-73047619D01*
X107888384Y-73047619D01*
X107888385Y-73047620D01*
X108028542Y-73075500D01*
X108028545Y-73075500D01*
X108171457Y-73075500D01*
X108265751Y-73056742D01*
X108311620Y-73047619D01*
X108443653Y-72992929D01*
X108562479Y-72913532D01*
X108663532Y-72812479D01*
X108742929Y-72693653D01*
X108797619Y-72561620D01*
X108812203Y-72488298D01*
X108844585Y-72426391D01*
X108846080Y-72424869D01*
X110226592Y-71044357D01*
X110252264Y-71024658D01*
X110356435Y-70964516D01*
X110464516Y-70856435D01*
X110540940Y-70724065D01*
X110580500Y-70576424D01*
X110580500Y-67074698D01*
X110600185Y-67007659D01*
X110601360Y-67005864D01*
X110642929Y-66943653D01*
X110697619Y-66811620D01*
X110725500Y-66671455D01*
X110725500Y-66528545D01*
X110725500Y-66528542D01*
X110697620Y-66388385D01*
X110697619Y-66388384D01*
X110697619Y-66388380D01*
X110642929Y-66256347D01*
X110642928Y-66256346D01*
X110642925Y-66256340D01*
X110563532Y-66137521D01*
X110563529Y-66137517D01*
X110462482Y-66036470D01*
X110462478Y-66036467D01*
X110343659Y-65957074D01*
X110343650Y-65957069D01*
X110211620Y-65902381D01*
X110211614Y-65902379D01*
X110071457Y-65874500D01*
X110071455Y-65874500D01*
X109928545Y-65874500D01*
X109928543Y-65874500D01*
X109788385Y-65902379D01*
X109788379Y-65902381D01*
X109656349Y-65957069D01*
X109656340Y-65957074D01*
X109537521Y-66036467D01*
X109537517Y-66036470D01*
X109436470Y-66137517D01*
X109436467Y-66137521D01*
X109357074Y-66256340D01*
X109357069Y-66256349D01*
X109302381Y-66388379D01*
X109302379Y-66388385D01*
X109274500Y-66528542D01*
X109274500Y-66528545D01*
X109274500Y-66671455D01*
X109274500Y-66671457D01*
X109274499Y-66671457D01*
X109302379Y-66811614D01*
X109302381Y-66811620D01*
X109357069Y-66943650D01*
X109357070Y-66943652D01*
X109357071Y-66943653D01*
X109398602Y-67005809D01*
X109419480Y-67072484D01*
X109419500Y-67074698D01*
X109419500Y-70158187D01*
X109399815Y-70225226D01*
X109383181Y-70245868D01*
X108788329Y-70840719D01*
X108727006Y-70874204D01*
X108657314Y-70869220D01*
X108601381Y-70827348D01*
X108578175Y-70772439D01*
X108573402Y-70742299D01*
X108519873Y-70577555D01*
X108441232Y-70423212D01*
X108339414Y-70283072D01*
X108228858Y-70172516D01*
X108195373Y-70111193D01*
X108200357Y-70041501D01*
X108228858Y-69997154D01*
X108263529Y-69962482D01*
X108263532Y-69962479D01*
X108342929Y-69843653D01*
X108397619Y-69711620D01*
X108412203Y-69638298D01*
X108444585Y-69576391D01*
X108446077Y-69574873D01*
X108864515Y-69156436D01*
X108864567Y-69156347D01*
X108940940Y-69024065D01*
X108958891Y-68957071D01*
X108980500Y-68876425D01*
X108980500Y-68723576D01*
X108980500Y-63281648D01*
X134266200Y-63281648D01*
X134266200Y-63518351D01*
X134303229Y-63752142D01*
X134303229Y-63752145D01*
X134376372Y-63977256D01*
X134376374Y-63977259D01*
X134483835Y-64188163D01*
X134622966Y-64379660D01*
X134790340Y-64547034D01*
X134981837Y-64686165D01*
X135192741Y-64793626D01*
X135192743Y-64793627D01*
X135417855Y-64866770D01*
X135417856Y-64866770D01*
X135417859Y-64866771D01*
X135651648Y-64903800D01*
X135651649Y-64903800D01*
X135888351Y-64903800D01*
X135888352Y-64903800D01*
X136122141Y-64866771D01*
X136122144Y-64866770D01*
X136122145Y-64866770D01*
X136347256Y-64793627D01*
X136347256Y-64793626D01*
X136347259Y-64793626D01*
X136558163Y-64686165D01*
X136749660Y-64547034D01*
X136917034Y-64379660D01*
X137056165Y-64188163D01*
X137163626Y-63977259D01*
X137236771Y-63752141D01*
X137273800Y-63518352D01*
X137273800Y-63281648D01*
X145696200Y-63281648D01*
X145696200Y-63518351D01*
X145733229Y-63752142D01*
X145733229Y-63752145D01*
X145806372Y-63977256D01*
X145806374Y-63977259D01*
X145913835Y-64188163D01*
X146052966Y-64379660D01*
X146220340Y-64547034D01*
X146411837Y-64686165D01*
X146622741Y-64793626D01*
X146622743Y-64793627D01*
X146847855Y-64866770D01*
X146847856Y-64866770D01*
X146847859Y-64866771D01*
X147081648Y-64903800D01*
X147081649Y-64903800D01*
X147318351Y-64903800D01*
X147318352Y-64903800D01*
X147552141Y-64866771D01*
X147552144Y-64866770D01*
X147552145Y-64866770D01*
X147777256Y-64793627D01*
X147777256Y-64793626D01*
X147777259Y-64793626D01*
X147988163Y-64686165D01*
X148179660Y-64547034D01*
X148347034Y-64379660D01*
X148486165Y-64188163D01*
X148593626Y-63977259D01*
X148666771Y-63752141D01*
X148703800Y-63518352D01*
X148703800Y-63281648D01*
X148666771Y-63047859D01*
X148666770Y-63047855D01*
X148666770Y-63047854D01*
X148593627Y-62822743D01*
X148581784Y-62799500D01*
X148486165Y-62611837D01*
X148347034Y-62420340D01*
X148179660Y-62252966D01*
X147988163Y-62113835D01*
X147777256Y-62006372D01*
X147552144Y-61933229D01*
X147376799Y-61905457D01*
X147318352Y-61896200D01*
X147081648Y-61896200D01*
X147003718Y-61908543D01*
X146847857Y-61933229D01*
X146847854Y-61933229D01*
X146622743Y-62006372D01*
X146411836Y-62113835D01*
X146302580Y-62193214D01*
X146220340Y-62252966D01*
X146220338Y-62252968D01*
X146220337Y-62252968D01*
X146052968Y-62420337D01*
X146052968Y-62420338D01*
X146052966Y-62420340D01*
X146050374Y-62423908D01*
X145913835Y-62611836D01*
X145806372Y-62822743D01*
X145733229Y-63047854D01*
X145733229Y-63047857D01*
X145696200Y-63281648D01*
X137273800Y-63281648D01*
X137236771Y-63047859D01*
X137236770Y-63047855D01*
X137236770Y-63047854D01*
X137163627Y-62822743D01*
X137151784Y-62799500D01*
X137056165Y-62611837D01*
X136917034Y-62420340D01*
X136749660Y-62252966D01*
X136558163Y-62113835D01*
X136347256Y-62006372D01*
X136122144Y-61933229D01*
X135946799Y-61905457D01*
X135888352Y-61896200D01*
X135651648Y-61896200D01*
X135573718Y-61908543D01*
X135417857Y-61933229D01*
X135417854Y-61933229D01*
X135192743Y-62006372D01*
X134981836Y-62113835D01*
X134872580Y-62193214D01*
X134790340Y-62252966D01*
X134790338Y-62252968D01*
X134790337Y-62252968D01*
X134622968Y-62420337D01*
X134622968Y-62420338D01*
X134622966Y-62420340D01*
X134620374Y-62423908D01*
X134483835Y-62611836D01*
X134376372Y-62822743D01*
X134303229Y-63047854D01*
X134303229Y-63047857D01*
X134266200Y-63281648D01*
X108980500Y-63281648D01*
X108980500Y-60135346D01*
X136150900Y-60135346D01*
X136150900Y-60364645D01*
X136174177Y-60541444D01*
X136180828Y-60591961D01*
X136202123Y-60671434D01*
X136240171Y-60813434D01*
X136327911Y-61025256D01*
X136327915Y-61025266D01*
X136442555Y-61223828D01*
X136582133Y-61405730D01*
X136582139Y-61405737D01*
X136744258Y-61567856D01*
X136744265Y-61567862D01*
X136926167Y-61707440D01*
X137124729Y-61822080D01*
X137124730Y-61822080D01*
X137124733Y-61822082D01*
X137265953Y-61880577D01*
X137336561Y-61909824D01*
X137336562Y-61909824D01*
X137336564Y-61909825D01*
X137558035Y-61969168D01*
X137785358Y-61999096D01*
X137785365Y-61999096D01*
X138014635Y-61999096D01*
X138014642Y-61999096D01*
X138241965Y-61969168D01*
X138463436Y-61909825D01*
X138675267Y-61822082D01*
X138873833Y-61707440D01*
X139055736Y-61567861D01*
X139217865Y-61405732D01*
X139357444Y-61223829D01*
X139472086Y-61025263D01*
X139559829Y-60813432D01*
X139619172Y-60591961D01*
X139649100Y-60364638D01*
X139649100Y-60135354D01*
X139619172Y-59908031D01*
X139559829Y-59686560D01*
X139472086Y-59474729D01*
X139465621Y-59463532D01*
X139357444Y-59276163D01*
X139217866Y-59094261D01*
X139217860Y-59094254D01*
X139055741Y-58932135D01*
X139055734Y-58932129D01*
X138873832Y-58792551D01*
X138675270Y-58677911D01*
X138675260Y-58677907D01*
X138463438Y-58590167D01*
X138352700Y-58560495D01*
X138241965Y-58530824D01*
X138191448Y-58524173D01*
X138014649Y-58500896D01*
X138014642Y-58500896D01*
X137785358Y-58500896D01*
X137785350Y-58500896D01*
X137583293Y-58527498D01*
X137558035Y-58530824D01*
X137502667Y-58545659D01*
X137336561Y-58590167D01*
X137124739Y-58677907D01*
X137124729Y-58677911D01*
X136926167Y-58792551D01*
X136744265Y-58932129D01*
X136744258Y-58932135D01*
X136582139Y-59094254D01*
X136582133Y-59094261D01*
X136442555Y-59276163D01*
X136327915Y-59474725D01*
X136327911Y-59474735D01*
X136240171Y-59686557D01*
X136180828Y-59908032D01*
X136150900Y-60135346D01*
X108980500Y-60135346D01*
X108980500Y-59223576D01*
X108976360Y-59208127D01*
X108940940Y-59075935D01*
X108939478Y-59073402D01*
X108864516Y-58943565D01*
X108756435Y-58835484D01*
X108746138Y-58825187D01*
X108712653Y-58763864D01*
X108712226Y-58761818D01*
X108697619Y-58688380D01*
X108642929Y-58556347D01*
X108642928Y-58556346D01*
X108642925Y-58556340D01*
X108563532Y-58437521D01*
X108563529Y-58437517D01*
X108462482Y-58336470D01*
X108462478Y-58336467D01*
X108343659Y-58257074D01*
X108343650Y-58257069D01*
X108211620Y-58202381D01*
X108211614Y-58202379D01*
X108071457Y-58174500D01*
X108071455Y-58174500D01*
X107928545Y-58174500D01*
X107928543Y-58174500D01*
X107788385Y-58202379D01*
X107788379Y-58202381D01*
X107656349Y-58257069D01*
X107656340Y-58257074D01*
X107537521Y-58336467D01*
X107537517Y-58336470D01*
X107436470Y-58437517D01*
X107436467Y-58437521D01*
X107357074Y-58556340D01*
X107357069Y-58556349D01*
X107302381Y-58688379D01*
X107302379Y-58688385D01*
X107274500Y-58828542D01*
X107274500Y-58828545D01*
X107274500Y-58971455D01*
X107274500Y-58971457D01*
X107274499Y-58971457D01*
X107302379Y-59111614D01*
X107302381Y-59111620D01*
X107357069Y-59243650D01*
X107357074Y-59243659D01*
X107436467Y-59362478D01*
X107436470Y-59362482D01*
X107537517Y-59463529D01*
X107537521Y-59463532D01*
X107656340Y-59542925D01*
X107656353Y-59542932D01*
X107742952Y-59578802D01*
X107797356Y-59622642D01*
X107819421Y-59688936D01*
X107819500Y-59693363D01*
X107819500Y-68508186D01*
X107810855Y-68537626D01*
X107804332Y-68567613D01*
X107800577Y-68572628D01*
X107799815Y-68575225D01*
X107783181Y-68595868D01*
X107625187Y-68753861D01*
X107563864Y-68787345D01*
X107561698Y-68787796D01*
X107488385Y-68802379D01*
X107488381Y-68802380D01*
X107356349Y-68857069D01*
X107356340Y-68857074D01*
X107237521Y-68936467D01*
X107237517Y-68936470D01*
X107136470Y-69037517D01*
X107136467Y-69037521D01*
X107057074Y-69156340D01*
X107057069Y-69156349D01*
X107002381Y-69288379D01*
X107002379Y-69288385D01*
X106974500Y-69428542D01*
X106974500Y-69428545D01*
X106974500Y-69571455D01*
X106974500Y-69571457D01*
X106974499Y-69571457D01*
X107002379Y-69711614D01*
X107002381Y-69711620D01*
X107057071Y-69843654D01*
X107059174Y-69847588D01*
X107073417Y-69915990D01*
X107048418Y-69981234D01*
X107006112Y-70016528D01*
X106923211Y-70058768D01*
X106878744Y-70091076D01*
X106783072Y-70160586D01*
X106783070Y-70160588D01*
X106783069Y-70160588D01*
X106660588Y-70283069D01*
X106660588Y-70283070D01*
X106660586Y-70283072D01*
X106632196Y-70322147D01*
X106558768Y-70423211D01*
X106480128Y-70577552D01*
X106426597Y-70742302D01*
X106408520Y-70856437D01*
X106399500Y-70913389D01*
X97417159Y-70913389D01*
X97425500Y-70871455D01*
X97425500Y-70728545D01*
X97414883Y-70675173D01*
X97414625Y-70664476D01*
X97421000Y-70640647D01*
X97423199Y-70616082D01*
X97430116Y-70606578D01*
X97432685Y-70596980D01*
X97445766Y-70585079D01*
X97458255Y-70567923D01*
X97458171Y-70567839D01*
X97458706Y-70567303D01*
X97459929Y-70565624D01*
X97462469Y-70563538D01*
X97462479Y-70563532D01*
X97563532Y-70462479D01*
X97642929Y-70343653D01*
X97697619Y-70211620D01*
X97708248Y-70158187D01*
X97725500Y-70071457D01*
X97725500Y-69928542D01*
X97697620Y-69788385D01*
X97697619Y-69788384D01*
X97697619Y-69788380D01*
X97642929Y-69656347D01*
X97642928Y-69656346D01*
X97642925Y-69656340D01*
X97563532Y-69537521D01*
X97563529Y-69537517D01*
X97462482Y-69436470D01*
X97457771Y-69432604D01*
X97458616Y-69431573D01*
X97418190Y-69383199D01*
X97409484Y-69313874D01*
X97428786Y-69264819D01*
X97442929Y-69243653D01*
X97497619Y-69111620D01*
X97506742Y-69065751D01*
X97525500Y-68971457D01*
X97525500Y-68828542D01*
X97497620Y-68688385D01*
X97497619Y-68688384D01*
X97497619Y-68688380D01*
X97483224Y-68653627D01*
X97470749Y-68623509D01*
X97463280Y-68554040D01*
X97494555Y-68491561D01*
X97529014Y-68465573D01*
X97576788Y-68441232D01*
X97716928Y-68339414D01*
X97839414Y-68216928D01*
X97941232Y-68076788D01*
X98019873Y-67922445D01*
X98073402Y-67757701D01*
X98100500Y-67586611D01*
X98100500Y-67413389D01*
X98073402Y-67242299D01*
X98019873Y-67077555D01*
X97941232Y-66923212D01*
X97839414Y-66783072D01*
X97716928Y-66660586D01*
X97576788Y-66558768D01*
X97422445Y-66480127D01*
X97257701Y-66426598D01*
X97257699Y-66426597D01*
X97257698Y-66426597D01*
X97126271Y-66405781D01*
X97086611Y-66399500D01*
X96913389Y-66399500D01*
X96842896Y-66410664D01*
X96773603Y-66401709D01*
X96720152Y-66356712D01*
X96699513Y-66289960D01*
X96699500Y-66288191D01*
X96699500Y-65477873D01*
X96719185Y-65410834D01*
X96735815Y-65390195D01*
X96763532Y-65362479D01*
X96842929Y-65243653D01*
X96897619Y-65111620D01*
X96925500Y-64971455D01*
X96925500Y-64828545D01*
X96925500Y-64828542D01*
X96897620Y-64688385D01*
X96897619Y-64688384D01*
X96897619Y-64688380D01*
X96842929Y-64556347D01*
X96842928Y-64556346D01*
X96842925Y-64556340D01*
X96763532Y-64437521D01*
X96763529Y-64437517D01*
X96662482Y-64336470D01*
X96662478Y-64336467D01*
X96543659Y-64257074D01*
X96543650Y-64257069D01*
X96411620Y-64202381D01*
X96411614Y-64202379D01*
X96271457Y-64174500D01*
X96271455Y-64174500D01*
X96128545Y-64174500D01*
X96128543Y-64174500D01*
X95988385Y-64202379D01*
X95988379Y-64202381D01*
X95856349Y-64257069D01*
X95856340Y-64257074D01*
X95737521Y-64336467D01*
X95737517Y-64336470D01*
X95636470Y-64437517D01*
X95636467Y-64437521D01*
X95557074Y-64556340D01*
X95557069Y-64556349D01*
X95502381Y-64688379D01*
X95502379Y-64688385D01*
X95474500Y-64828542D01*
X95474500Y-64828545D01*
X95474500Y-64971455D01*
X95474500Y-64971457D01*
X95474499Y-64971457D01*
X95502379Y-65111614D01*
X95502381Y-65111620D01*
X95529061Y-65176030D01*
X95538500Y-65223483D01*
X95538500Y-68295424D01*
X95578060Y-68443065D01*
X95654484Y-68575435D01*
X95654485Y-68575436D01*
X95654486Y-68575437D01*
X95886868Y-68807819D01*
X95920353Y-68869142D01*
X95915369Y-68938834D01*
X95873497Y-68994767D01*
X95808033Y-69019184D01*
X95799187Y-69019500D01*
X91874700Y-69019500D01*
X91807661Y-68999815D01*
X91805810Y-68998602D01*
X91743655Y-68957071D01*
X91611620Y-68902381D01*
X91611614Y-68902379D01*
X91471457Y-68874500D01*
X91471455Y-68874500D01*
X91328545Y-68874500D01*
X91328543Y-68874500D01*
X91188385Y-68902379D01*
X91188379Y-68902381D01*
X91056349Y-68957069D01*
X91056345Y-68957072D01*
X90937521Y-69036467D01*
X90937517Y-69036470D01*
X90836470Y-69137517D01*
X90836467Y-69137521D01*
X90757074Y-69256340D01*
X90757069Y-69256349D01*
X90702381Y-69388379D01*
X90702379Y-69388385D01*
X90674500Y-69528542D01*
X90674500Y-69528545D01*
X90674500Y-69671455D01*
X90674500Y-69671457D01*
X90674499Y-69671457D01*
X90702379Y-69811614D01*
X90702381Y-69811620D01*
X90757069Y-69943650D01*
X90757074Y-69943659D01*
X90836467Y-70062478D01*
X90836470Y-70062482D01*
X90937516Y-70163528D01*
X90940014Y-70165578D01*
X90940971Y-70166983D01*
X90941828Y-70167840D01*
X90941665Y-70168002D01*
X90979351Y-70223321D01*
X90981225Y-70293166D01*
X90945041Y-70352936D01*
X90885547Y-70383052D01*
X90788384Y-70402380D01*
X90788379Y-70402381D01*
X90656349Y-70457069D01*
X90656340Y-70457074D01*
X90537521Y-70536467D01*
X90537517Y-70536470D01*
X90436470Y-70637517D01*
X90436467Y-70637521D01*
X90357074Y-70756340D01*
X90357069Y-70756349D01*
X90302381Y-70888379D01*
X90302379Y-70888385D01*
X90274500Y-71028542D01*
X90274500Y-71028545D01*
X90274500Y-71171455D01*
X90274500Y-71171457D01*
X90274499Y-71171457D01*
X82564930Y-71171457D01*
X89219568Y-64516819D01*
X89280891Y-64483334D01*
X89307249Y-64480500D01*
X91225300Y-64480500D01*
X91292339Y-64500185D01*
X91294190Y-64501398D01*
X91356345Y-64542928D01*
X91356344Y-64542928D01*
X91356349Y-64542930D01*
X91488380Y-64597619D01*
X91488384Y-64597619D01*
X91488385Y-64597620D01*
X91628542Y-64625500D01*
X91628545Y-64625500D01*
X91771457Y-64625500D01*
X91865751Y-64606742D01*
X91911620Y-64597619D01*
X92043653Y-64542929D01*
X92162479Y-64463532D01*
X92263532Y-64362479D01*
X92342929Y-64243653D01*
X92397619Y-64111620D01*
X92406742Y-64065751D01*
X92425500Y-63971457D01*
X92425500Y-63828542D01*
X92397620Y-63688385D01*
X92397619Y-63688384D01*
X92397619Y-63688380D01*
X92342929Y-63556347D01*
X92342928Y-63556346D01*
X92342925Y-63556340D01*
X92263532Y-63437521D01*
X92263529Y-63437517D01*
X92162482Y-63336470D01*
X92162478Y-63336467D01*
X92043659Y-63257074D01*
X92043650Y-63257069D01*
X91911620Y-63202381D01*
X91911614Y-63202379D01*
X91771457Y-63174500D01*
X91771455Y-63174500D01*
X91628545Y-63174500D01*
X91628543Y-63174500D01*
X91488385Y-63202379D01*
X91488379Y-63202381D01*
X91356344Y-63257071D01*
X91294190Y-63298602D01*
X91227513Y-63319480D01*
X91225300Y-63319500D01*
X88939011Y-63319500D01*
X88875685Y-63336467D01*
X88875686Y-63336468D01*
X88791367Y-63359061D01*
X88659004Y-63435481D01*
X88658998Y-63435486D01*
X85053174Y-67041309D01*
X84991851Y-67074794D01*
X84922159Y-67069810D01*
X84866226Y-67027938D01*
X84841809Y-66962474D01*
X84843875Y-66929443D01*
X84866789Y-66814250D01*
X84900500Y-66471969D01*
X84900500Y-66128031D01*
X84866789Y-65785750D01*
X84799690Y-65448422D01*
X84699850Y-65119295D01*
X84568231Y-64801538D01*
X84564002Y-64793627D01*
X84406106Y-64498224D01*
X84406105Y-64498222D01*
X84406100Y-64498213D01*
X84215019Y-64212240D01*
X83996828Y-63946373D01*
X83996827Y-63946372D01*
X83996823Y-63946367D01*
X83753632Y-63703176D01*
X83487765Y-63484985D01*
X83487764Y-63484984D01*
X83487760Y-63484981D01*
X83201787Y-63293900D01*
X83201782Y-63293897D01*
X83201775Y-63293893D01*
X82898469Y-63131772D01*
X82898464Y-63131770D01*
X82580706Y-63000150D01*
X82251572Y-62900308D01*
X81976620Y-62845617D01*
X81914709Y-62813232D01*
X81880135Y-62752516D01*
X81883874Y-62682747D01*
X81924741Y-62626075D01*
X81989759Y-62600494D01*
X82000811Y-62600000D01*
X82971434Y-62600000D01*
X82971436Y-62599999D01*
X83185362Y-62584699D01*
X83464895Y-62523890D01*
X83732958Y-62423908D01*
X83984038Y-62286808D01*
X83984039Y-62286807D01*
X84213065Y-62115360D01*
X84213077Y-62115350D01*
X84415350Y-61913077D01*
X84415360Y-61913065D01*
X84586807Y-61684039D01*
X84586808Y-61684038D01*
X84723908Y-61432958D01*
X84823890Y-61164895D01*
X84884699Y-60885362D01*
X84899999Y-60671436D01*
X84900000Y-60671434D01*
X84900000Y-59350000D01*
X83636502Y-59350000D01*
X83650000Y-59247473D01*
X83650000Y-58952527D01*
X83636502Y-58850000D01*
X84900000Y-58850000D01*
X84900000Y-57913389D01*
X92399500Y-57913389D01*
X92399500Y-58086610D01*
X92426597Y-58257697D01*
X92480128Y-58422447D01*
X92487809Y-58437521D01*
X92558768Y-58576788D01*
X92660586Y-58716928D01*
X92783072Y-58839414D01*
X92923212Y-58941232D01*
X93077555Y-59019873D01*
X93242299Y-59073402D01*
X93413389Y-59100500D01*
X93413390Y-59100500D01*
X93586610Y-59100500D01*
X93586611Y-59100500D01*
X93757701Y-59073402D01*
X93922445Y-59019873D01*
X94076788Y-58941232D01*
X94216928Y-58839414D01*
X94339414Y-58716928D01*
X94441232Y-58576788D01*
X94519873Y-58422445D01*
X94573402Y-58257701D01*
X94600500Y-58086611D01*
X94600500Y-57913389D01*
X94573402Y-57742299D01*
X94519873Y-57577555D01*
X94441232Y-57423212D01*
X94339414Y-57283072D01*
X94216928Y-57160586D01*
X94076788Y-57058768D01*
X93922445Y-56980127D01*
X93757701Y-56926598D01*
X93757699Y-56926597D01*
X93757698Y-56926597D01*
X93626271Y-56905781D01*
X93586611Y-56899500D01*
X93413389Y-56899500D01*
X93373728Y-56905781D01*
X93242302Y-56926597D01*
X93077552Y-56980128D01*
X92923211Y-57058768D01*
X92843256Y-57116859D01*
X92783072Y-57160586D01*
X92783070Y-57160588D01*
X92783069Y-57160588D01*
X92660588Y-57283069D01*
X92660588Y-57283070D01*
X92660586Y-57283072D01*
X92637653Y-57314637D01*
X92558768Y-57423211D01*
X92480128Y-57577552D01*
X92426597Y-57742302D01*
X92399500Y-57913389D01*
X84900000Y-57913389D01*
X84900000Y-57528566D01*
X84899999Y-57528563D01*
X84884699Y-57314637D01*
X84823890Y-57035104D01*
X84723908Y-56767041D01*
X84586808Y-56515961D01*
X84586807Y-56515960D01*
X84415360Y-56286934D01*
X84415350Y-56286922D01*
X84213077Y-56084649D01*
X84213065Y-56084639D01*
X83984039Y-55913192D01*
X83984038Y-55913191D01*
X83732957Y-55776091D01*
X83732958Y-55776091D01*
X83464895Y-55676109D01*
X83185362Y-55615300D01*
X82971436Y-55600000D01*
X81650000Y-55600000D01*
X81650000Y-56863497D01*
X81547473Y-56850000D01*
X81252527Y-56850000D01*
X81150000Y-56863497D01*
X81150000Y-55600000D01*
X79828563Y-55600000D01*
X79614637Y-55615300D01*
X79335104Y-55676109D01*
X79067041Y-55776091D01*
X78815961Y-55913191D01*
X78815960Y-55913192D01*
X78586934Y-56084639D01*
X78586922Y-56084649D01*
X78384649Y-56286922D01*
X78384639Y-56286934D01*
X78213192Y-56515960D01*
X78213191Y-56515961D01*
X78076091Y-56767041D01*
X77976109Y-57035104D01*
X77915300Y-57314637D01*
X77900000Y-57528563D01*
X77900000Y-58850000D01*
X79163498Y-58850000D01*
X79150000Y-58952527D01*
X79150000Y-59247473D01*
X79163498Y-59350000D01*
X77900000Y-59350000D01*
X77900000Y-60671436D01*
X77915300Y-60885362D01*
X77976109Y-61164895D01*
X78076091Y-61432958D01*
X78213191Y-61684038D01*
X78213192Y-61684039D01*
X78384639Y-61913065D01*
X78384649Y-61913077D01*
X78586922Y-62115350D01*
X78586934Y-62115360D01*
X78815960Y-62286807D01*
X78815961Y-62286808D01*
X79067042Y-62423908D01*
X79067041Y-62423908D01*
X79335104Y-62523890D01*
X79614637Y-62584699D01*
X79828563Y-62599999D01*
X79828566Y-62600000D01*
X80799189Y-62600000D01*
X80866228Y-62619685D01*
X80911983Y-62672489D01*
X80921927Y-62741647D01*
X80892902Y-62805203D01*
X80834124Y-62842977D01*
X80823380Y-62845617D01*
X80548427Y-62900308D01*
X80219293Y-63000150D01*
X79901535Y-63131770D01*
X79901530Y-63131772D01*
X79598224Y-63293893D01*
X79598206Y-63293904D01*
X79312248Y-63484975D01*
X79312234Y-63484985D01*
X79046367Y-63703176D01*
X78803176Y-63946367D01*
X78584985Y-64212234D01*
X78584975Y-64212248D01*
X78393904Y-64498206D01*
X78393893Y-64498224D01*
X78231772Y-64801530D01*
X78231770Y-64801535D01*
X78100150Y-65119293D01*
X78000308Y-65448427D01*
X77933210Y-65785750D01*
X77916337Y-65957074D01*
X77899500Y-66128031D01*
X75464551Y-66128031D01*
X75487997Y-55413389D01*
X97399500Y-55413389D01*
X97399500Y-55586611D01*
X97426598Y-55757701D01*
X97480127Y-55922445D01*
X97558768Y-56076788D01*
X97660586Y-56216928D01*
X97783072Y-56339414D01*
X97923212Y-56441232D01*
X98077555Y-56519873D01*
X98242299Y-56573402D01*
X98413389Y-56600500D01*
X98413390Y-56600500D01*
X98586610Y-56600500D01*
X98586611Y-56600500D01*
X98757701Y-56573402D01*
X98922445Y-56519873D01*
X99076788Y-56441232D01*
X99216928Y-56339414D01*
X99339414Y-56216928D01*
X99441232Y-56076788D01*
X99519873Y-55922445D01*
X99573402Y-55757701D01*
X99600500Y-55586611D01*
X99600500Y-55413389D01*
X99573402Y-55242299D01*
X99519873Y-55077555D01*
X99441232Y-54923212D01*
X99339414Y-54783072D01*
X99216928Y-54660586D01*
X99076788Y-54558768D01*
X98922445Y-54480127D01*
X98757701Y-54426598D01*
X98757699Y-54426597D01*
X98757698Y-54426597D01*
X98626271Y-54405781D01*
X98586611Y-54399500D01*
X98413389Y-54399500D01*
X98373728Y-54405781D01*
X98242302Y-54426597D01*
X98077552Y-54480128D01*
X97923211Y-54558768D01*
X97843256Y-54616859D01*
X97783072Y-54660586D01*
X97783070Y-54660588D01*
X97783069Y-54660588D01*
X97660588Y-54783069D01*
X97660588Y-54783070D01*
X97660586Y-54783072D01*
X97616859Y-54843256D01*
X97558768Y-54923211D01*
X97480128Y-55077552D01*
X97426597Y-55242302D01*
X97400315Y-55408246D01*
X97399500Y-55413389D01*
X75487997Y-55413389D01*
X75491524Y-53801332D01*
X134516200Y-53801332D01*
X134516200Y-53998683D01*
X134547073Y-54193608D01*
X134547073Y-54193611D01*
X134608056Y-54381297D01*
X134608058Y-54381300D01*
X134697654Y-54557142D01*
X134813655Y-54716804D01*
X134953204Y-54856353D01*
X135112866Y-54972354D01*
X135288708Y-55061950D01*
X135288710Y-55061951D01*
X135476397Y-55122934D01*
X135476398Y-55122934D01*
X135476401Y-55122935D01*
X135671324Y-55153808D01*
X135671325Y-55153808D01*
X135868675Y-55153808D01*
X135868676Y-55153808D01*
X136063599Y-55122935D01*
X136063602Y-55122934D01*
X136063603Y-55122934D01*
X136251289Y-55061951D01*
X136251289Y-55061950D01*
X136251292Y-55061950D01*
X136427134Y-54972354D01*
X136586796Y-54856353D01*
X136726345Y-54716804D01*
X136842346Y-54557142D01*
X136931942Y-54381300D01*
X136992927Y-54193607D01*
X137023800Y-53998684D01*
X137023800Y-53801332D01*
X145946200Y-53801332D01*
X145946200Y-53998683D01*
X145977073Y-54193608D01*
X145977073Y-54193611D01*
X146038056Y-54381297D01*
X146038058Y-54381300D01*
X146127654Y-54557142D01*
X146243655Y-54716804D01*
X146383204Y-54856353D01*
X146542866Y-54972354D01*
X146718708Y-55061950D01*
X146718710Y-55061951D01*
X146906397Y-55122934D01*
X146906398Y-55122934D01*
X146906401Y-55122935D01*
X147101324Y-55153808D01*
X147101325Y-55153808D01*
X147298675Y-55153808D01*
X147298676Y-55153808D01*
X147493599Y-55122935D01*
X147493602Y-55122934D01*
X147493603Y-55122934D01*
X147681289Y-55061951D01*
X147681289Y-55061950D01*
X147681292Y-55061950D01*
X147857134Y-54972354D01*
X148016796Y-54856353D01*
X148156345Y-54716804D01*
X148272346Y-54557142D01*
X148361942Y-54381300D01*
X148422927Y-54193607D01*
X148453800Y-53998684D01*
X148453800Y-53801332D01*
X148422927Y-53606409D01*
X148422926Y-53606405D01*
X148422926Y-53606404D01*
X148361943Y-53418718D01*
X148298115Y-53293449D01*
X148272346Y-53242874D01*
X148156345Y-53083212D01*
X148016796Y-52943663D01*
X148011508Y-52939821D01*
X148011508Y-52939820D01*
X147857137Y-52827664D01*
X147857136Y-52827663D01*
X147857134Y-52827662D01*
X147769213Y-52782864D01*
X147681289Y-52738064D01*
X147493602Y-52677081D01*
X147347406Y-52653926D01*
X147298676Y-52646208D01*
X147101324Y-52646208D01*
X147036349Y-52656499D01*
X146906399Y-52677081D01*
X146906396Y-52677081D01*
X146718710Y-52738064D01*
X146542865Y-52827662D01*
X146383201Y-52943665D01*
X146243657Y-53083209D01*
X146127654Y-53242873D01*
X146038056Y-53418718D01*
X145977073Y-53606404D01*
X145977073Y-53606407D01*
X145946200Y-53801332D01*
X137023800Y-53801332D01*
X136992927Y-53606409D01*
X136992926Y-53606405D01*
X136992926Y-53606404D01*
X136931943Y-53418718D01*
X136868115Y-53293449D01*
X136842346Y-53242874D01*
X136726345Y-53083212D01*
X136586796Y-52943663D01*
X136427134Y-52827662D01*
X136251289Y-52738064D01*
X136063602Y-52677081D01*
X135917406Y-52653926D01*
X135868676Y-52646208D01*
X135671324Y-52646208D01*
X135606349Y-52656499D01*
X135476399Y-52677081D01*
X135476396Y-52677081D01*
X135288710Y-52738064D01*
X135112865Y-52827662D01*
X134953201Y-52943665D01*
X134813657Y-53083209D01*
X134697654Y-53242873D01*
X134608056Y-53418718D01*
X134547073Y-53606404D01*
X134547073Y-53606407D01*
X134516200Y-53801332D01*
X75491524Y-53801332D01*
X75500401Y-49744536D01*
X75500500Y-49702272D01*
X75500506Y-49702250D01*
X75500606Y-49697437D01*
X75508018Y-49518234D01*
X76800000Y-49518234D01*
X76800000Y-49881765D01*
X76835632Y-50243556D01*
X76906550Y-50600090D01*
X76906553Y-50600101D01*
X77012086Y-50947997D01*
X77151207Y-51283864D01*
X77151209Y-51283869D01*
X77322570Y-51604462D01*
X77322581Y-51604480D01*
X77524551Y-51906750D01*
X77711678Y-52134765D01*
X77711679Y-52134766D01*
X79205747Y-50640697D01*
X79279588Y-50742330D01*
X79457670Y-50920412D01*
X79559301Y-50994251D01*
X78065232Y-52488319D01*
X78065233Y-52488320D01*
X78293249Y-52675448D01*
X78595519Y-52877418D01*
X78595537Y-52877429D01*
X78916130Y-53048790D01*
X78916135Y-53048792D01*
X79252002Y-53187913D01*
X79599898Y-53293446D01*
X79599909Y-53293449D01*
X79956443Y-53364367D01*
X80318234Y-53400000D01*
X80681766Y-53400000D01*
X81043556Y-53364367D01*
X81400090Y-53293449D01*
X81400101Y-53293446D01*
X81747997Y-53187913D01*
X82083864Y-53048792D01*
X82083869Y-53048790D01*
X82404462Y-52877429D01*
X82404480Y-52877418D01*
X82706736Y-52675457D01*
X82706750Y-52675447D01*
X82934765Y-52488320D01*
X82934766Y-52488319D01*
X81440698Y-50994251D01*
X81542330Y-50920412D01*
X81720412Y-50742330D01*
X81794251Y-50640698D01*
X83288319Y-52134766D01*
X83288320Y-52134765D01*
X83475447Y-51906750D01*
X83475457Y-51906736D01*
X83677418Y-51604480D01*
X83677429Y-51604462D01*
X83848790Y-51283869D01*
X83848792Y-51283864D01*
X83987913Y-50947997D01*
X84093446Y-50600101D01*
X84093449Y-50600090D01*
X84164367Y-50243556D01*
X84200000Y-49881765D01*
X84200000Y-49868872D01*
X88199500Y-49868872D01*
X88199500Y-50131127D01*
X88219333Y-50281765D01*
X88233730Y-50391116D01*
X88274878Y-50544682D01*
X88301602Y-50644418D01*
X88301605Y-50644428D01*
X88401953Y-50886690D01*
X88401958Y-50886700D01*
X88533075Y-51113803D01*
X88692718Y-51321851D01*
X88692726Y-51321860D01*
X88878140Y-51507274D01*
X88878148Y-51507281D01*
X89086196Y-51666924D01*
X89313299Y-51798041D01*
X89313309Y-51798046D01*
X89555571Y-51898394D01*
X89555581Y-51898398D01*
X89808884Y-51966270D01*
X90068880Y-52000500D01*
X90068887Y-52000500D01*
X90331113Y-52000500D01*
X90331120Y-52000500D01*
X90591116Y-51966270D01*
X90844419Y-51898398D01*
X91086697Y-51798043D01*
X91313803Y-51666924D01*
X91521851Y-51507282D01*
X91521855Y-51507277D01*
X91521860Y-51507274D01*
X91707274Y-51321860D01*
X91707277Y-51321855D01*
X91707282Y-51321851D01*
X91866924Y-51113803D01*
X91998043Y-50886697D01*
X92098398Y-50644419D01*
X92166270Y-50391116D01*
X92200500Y-50131120D01*
X92200500Y-49868880D01*
X92200499Y-49868872D01*
X92899500Y-49868872D01*
X92899500Y-50131127D01*
X92919333Y-50281765D01*
X92933730Y-50391116D01*
X92974878Y-50544682D01*
X93001602Y-50644418D01*
X93001605Y-50644428D01*
X93101953Y-50886690D01*
X93101958Y-50886700D01*
X93233075Y-51113803D01*
X93392718Y-51321851D01*
X93392726Y-51321860D01*
X93578140Y-51507274D01*
X93578148Y-51507281D01*
X93786196Y-51666924D01*
X94013299Y-51798041D01*
X94013309Y-51798046D01*
X94255571Y-51898394D01*
X94255581Y-51898398D01*
X94508884Y-51966270D01*
X94768880Y-52000500D01*
X94768887Y-52000500D01*
X95031113Y-52000500D01*
X95031120Y-52000500D01*
X95291116Y-51966270D01*
X95544419Y-51898398D01*
X95786697Y-51798043D01*
X96013803Y-51666924D01*
X96221851Y-51507282D01*
X96221855Y-51507277D01*
X96221860Y-51507274D01*
X96407274Y-51321860D01*
X96407277Y-51321855D01*
X96407282Y-51321851D01*
X96566924Y-51113803D01*
X96698043Y-50886697D01*
X96798398Y-50644419D01*
X96866270Y-50391116D01*
X96900500Y-50131120D01*
X96900500Y-49868880D01*
X96900499Y-49868872D01*
X97599500Y-49868872D01*
X97599500Y-50131127D01*
X97619333Y-50281765D01*
X97633730Y-50391116D01*
X97674878Y-50544682D01*
X97701602Y-50644418D01*
X97701605Y-50644428D01*
X97801953Y-50886690D01*
X97801958Y-50886700D01*
X97933075Y-51113803D01*
X98092718Y-51321851D01*
X98092726Y-51321860D01*
X98278140Y-51507274D01*
X98278148Y-51507281D01*
X98486196Y-51666924D01*
X98713299Y-51798041D01*
X98713309Y-51798046D01*
X98955571Y-51898394D01*
X98955581Y-51898398D01*
X99208884Y-51966270D01*
X99468880Y-52000500D01*
X99468887Y-52000500D01*
X99731113Y-52000500D01*
X99731120Y-52000500D01*
X99991116Y-51966270D01*
X100244419Y-51898398D01*
X100486697Y-51798043D01*
X100713803Y-51666924D01*
X100921851Y-51507282D01*
X100921855Y-51507277D01*
X100921860Y-51507274D01*
X101107274Y-51321860D01*
X101107277Y-51321855D01*
X101107282Y-51321851D01*
X101266924Y-51113803D01*
X101398043Y-50886697D01*
X101498398Y-50644419D01*
X101515217Y-50581648D01*
X134266200Y-50581648D01*
X134266200Y-50818351D01*
X134303229Y-51052142D01*
X134303229Y-51052145D01*
X134376372Y-51277256D01*
X134399099Y-51321860D01*
X134483835Y-51488163D01*
X134622966Y-51679660D01*
X134790340Y-51847034D01*
X134981837Y-51986165D01*
X135192741Y-52093626D01*
X135192743Y-52093627D01*
X135417855Y-52166770D01*
X135417856Y-52166770D01*
X135417859Y-52166771D01*
X135651648Y-52203800D01*
X135651649Y-52203800D01*
X135888351Y-52203800D01*
X135888352Y-52203800D01*
X136122141Y-52166771D01*
X136122144Y-52166770D01*
X136122145Y-52166770D01*
X136347256Y-52093627D01*
X136347256Y-52093626D01*
X136347259Y-52093626D01*
X136558163Y-51986165D01*
X136749660Y-51847034D01*
X136917034Y-51679660D01*
X137056165Y-51488163D01*
X137163626Y-51277259D01*
X137236771Y-51052141D01*
X137273800Y-50818352D01*
X137273800Y-50581648D01*
X145696200Y-50581648D01*
X145696200Y-50818351D01*
X145733229Y-51052142D01*
X145733229Y-51052145D01*
X145806372Y-51277256D01*
X145829099Y-51321860D01*
X145913835Y-51488163D01*
X146052966Y-51679660D01*
X146220340Y-51847034D01*
X146411837Y-51986165D01*
X146622741Y-52093626D01*
X146622743Y-52093627D01*
X146847855Y-52166770D01*
X146847856Y-52166770D01*
X146847859Y-52166771D01*
X147081648Y-52203800D01*
X147081649Y-52203800D01*
X147318351Y-52203800D01*
X147318352Y-52203800D01*
X147552141Y-52166771D01*
X147552144Y-52166770D01*
X147552145Y-52166770D01*
X147777256Y-52093627D01*
X147777256Y-52093626D01*
X147777259Y-52093626D01*
X147988163Y-51986165D01*
X148179660Y-51847034D01*
X148347034Y-51679660D01*
X148486165Y-51488163D01*
X148593626Y-51277259D01*
X148666771Y-51052141D01*
X148703800Y-50818352D01*
X148703800Y-50581648D01*
X148666771Y-50347859D01*
X148666770Y-50347855D01*
X148666770Y-50347854D01*
X148593627Y-50122743D01*
X148516556Y-49971482D01*
X148516555Y-49971480D01*
X148489425Y-49918234D01*
X149800000Y-49918234D01*
X149800000Y-50281765D01*
X149835632Y-50643556D01*
X149906550Y-51000090D01*
X149906553Y-51000101D01*
X150012086Y-51347997D01*
X150151207Y-51683864D01*
X150151209Y-51683869D01*
X150322570Y-52004462D01*
X150322581Y-52004480D01*
X150524551Y-52306750D01*
X150711678Y-52534765D01*
X150711679Y-52534766D01*
X152205747Y-51040697D01*
X152279588Y-51142330D01*
X152457670Y-51320412D01*
X152559301Y-51394251D01*
X151065232Y-52888319D01*
X151065233Y-52888320D01*
X151293249Y-53075448D01*
X151595519Y-53277418D01*
X151595537Y-53277429D01*
X151916130Y-53448790D01*
X151916135Y-53448792D01*
X152252002Y-53587913D01*
X152599898Y-53693446D01*
X152599909Y-53693449D01*
X152956443Y-53764367D01*
X153318234Y-53800000D01*
X153681766Y-53800000D01*
X154043556Y-53764367D01*
X154400090Y-53693449D01*
X154400101Y-53693446D01*
X154747997Y-53587913D01*
X155083864Y-53448792D01*
X155083869Y-53448790D01*
X155404462Y-53277429D01*
X155404480Y-53277418D01*
X155706736Y-53075457D01*
X155706750Y-53075447D01*
X155934765Y-52888320D01*
X155934766Y-52888319D01*
X154440698Y-51394251D01*
X154542330Y-51320412D01*
X154720412Y-51142330D01*
X154794251Y-51040698D01*
X156288319Y-52534766D01*
X156288320Y-52534765D01*
X156475447Y-52306750D01*
X156475457Y-52306736D01*
X156677418Y-52004480D01*
X156677429Y-52004462D01*
X156848790Y-51683869D01*
X156848792Y-51683864D01*
X156987913Y-51347997D01*
X157093446Y-51000101D01*
X157093449Y-51000090D01*
X157164367Y-50643556D01*
X157200000Y-50281765D01*
X157200000Y-49918234D01*
X157164367Y-49556443D01*
X157093449Y-49199909D01*
X157093446Y-49199898D01*
X156987913Y-48852002D01*
X156848792Y-48516135D01*
X156848790Y-48516130D01*
X156677429Y-48195537D01*
X156677418Y-48195519D01*
X156475448Y-47893249D01*
X156288320Y-47665233D01*
X156288319Y-47665232D01*
X154794251Y-49159300D01*
X154720412Y-49057670D01*
X154542330Y-48879588D01*
X154440698Y-48805748D01*
X155934766Y-47311679D01*
X155934765Y-47311678D01*
X155706750Y-47124551D01*
X155404480Y-46922581D01*
X155404462Y-46922570D01*
X155083869Y-46751209D01*
X155083864Y-46751207D01*
X154747997Y-46612086D01*
X154400101Y-46506553D01*
X154400090Y-46506550D01*
X154043556Y-46435632D01*
X153681766Y-46400000D01*
X153318234Y-46400000D01*
X152956443Y-46435632D01*
X152599909Y-46506550D01*
X152599898Y-46506553D01*
X152252002Y-46612086D01*
X151916135Y-46751207D01*
X151916130Y-46751209D01*
X151595537Y-46922570D01*
X151595519Y-46922581D01*
X151293258Y-47124545D01*
X151293254Y-47124548D01*
X151065233Y-47311679D01*
X151065233Y-47311680D01*
X152559301Y-48805748D01*
X152457670Y-48879588D01*
X152279588Y-49057670D01*
X152205748Y-49159301D01*
X150711680Y-47665233D01*
X150711679Y-47665233D01*
X150524548Y-47893254D01*
X150524545Y-47893258D01*
X150322581Y-48195519D01*
X150322570Y-48195537D01*
X150151209Y-48516130D01*
X150151207Y-48516135D01*
X150012086Y-48852002D01*
X149906553Y-49199898D01*
X149906550Y-49199909D01*
X149835632Y-49556443D01*
X149800000Y-49918234D01*
X148489425Y-49918234D01*
X148486166Y-49911838D01*
X148454949Y-49868872D01*
X148347034Y-49720340D01*
X148179660Y-49552966D01*
X147988163Y-49413835D01*
X147923615Y-49380946D01*
X147777256Y-49306372D01*
X147552144Y-49233229D01*
X147341769Y-49199909D01*
X147318352Y-49196200D01*
X147081648Y-49196200D01*
X147058231Y-49199909D01*
X146847857Y-49233229D01*
X146847854Y-49233229D01*
X146622743Y-49306372D01*
X146411836Y-49413835D01*
X146312768Y-49485813D01*
X146220340Y-49552966D01*
X146220338Y-49552968D01*
X146220337Y-49552968D01*
X146052968Y-49720337D01*
X146052968Y-49720338D01*
X146052966Y-49720340D01*
X146033999Y-49746446D01*
X145913835Y-49911836D01*
X145806372Y-50122743D01*
X145733229Y-50347854D01*
X145733229Y-50347857D01*
X145696200Y-50581648D01*
X137273800Y-50581648D01*
X137236771Y-50347859D01*
X137236770Y-50347855D01*
X137236770Y-50347854D01*
X137163627Y-50122743D01*
X137152038Y-50099998D01*
X137056165Y-49911837D01*
X136917034Y-49720340D01*
X136749660Y-49552966D01*
X136558163Y-49413835D01*
X136493615Y-49380946D01*
X136347256Y-49306372D01*
X136122144Y-49233229D01*
X135911769Y-49199909D01*
X135888352Y-49196200D01*
X135651648Y-49196200D01*
X135628231Y-49199909D01*
X135417857Y-49233229D01*
X135417854Y-49233229D01*
X135192743Y-49306372D01*
X134981836Y-49413835D01*
X134882768Y-49485813D01*
X134790340Y-49552966D01*
X134790338Y-49552968D01*
X134790337Y-49552968D01*
X134622968Y-49720337D01*
X134622968Y-49720338D01*
X134622966Y-49720340D01*
X134603999Y-49746446D01*
X134483835Y-49911836D01*
X134376372Y-50122743D01*
X134303229Y-50347854D01*
X134303229Y-50347857D01*
X134266200Y-50581648D01*
X101515217Y-50581648D01*
X101566270Y-50391116D01*
X101600500Y-50131120D01*
X101600500Y-49868880D01*
X101566270Y-49608884D01*
X101498398Y-49355581D01*
X101487699Y-49329751D01*
X101398046Y-49113309D01*
X101398041Y-49113299D01*
X101266924Y-48886196D01*
X101107281Y-48678148D01*
X101107274Y-48678140D01*
X100921860Y-48492726D01*
X100921851Y-48492718D01*
X100713803Y-48333075D01*
X100486700Y-48201958D01*
X100486690Y-48201953D01*
X100244428Y-48101605D01*
X100244421Y-48101603D01*
X100244419Y-48101602D01*
X99991116Y-48033730D01*
X99933339Y-48026123D01*
X99731127Y-47999500D01*
X99731120Y-47999500D01*
X99468880Y-47999500D01*
X99468872Y-47999500D01*
X99237772Y-48029926D01*
X99208884Y-48033730D01*
X98973312Y-48096851D01*
X98955581Y-48101602D01*
X98955571Y-48101605D01*
X98713309Y-48201953D01*
X98713299Y-48201958D01*
X98486196Y-48333075D01*
X98278148Y-48492718D01*
X98092718Y-48678148D01*
X97933075Y-48886196D01*
X97801958Y-49113299D01*
X97801953Y-49113309D01*
X97701605Y-49355571D01*
X97701602Y-49355581D01*
X97643057Y-49574077D01*
X97633730Y-49608885D01*
X97599500Y-49868872D01*
X96900499Y-49868872D01*
X96866270Y-49608884D01*
X96798398Y-49355581D01*
X96787699Y-49329751D01*
X96698046Y-49113309D01*
X96698041Y-49113299D01*
X96566924Y-48886196D01*
X96407281Y-48678148D01*
X96407274Y-48678140D01*
X96221860Y-48492726D01*
X96221851Y-48492718D01*
X96013803Y-48333075D01*
X95786700Y-48201958D01*
X95786690Y-48201953D01*
X95544428Y-48101605D01*
X95544421Y-48101603D01*
X95544419Y-48101602D01*
X95291116Y-48033730D01*
X95233339Y-48026123D01*
X95031127Y-47999500D01*
X95031120Y-47999500D01*
X94768880Y-47999500D01*
X94768872Y-47999500D01*
X94537772Y-48029926D01*
X94508884Y-48033730D01*
X94273312Y-48096851D01*
X94255581Y-48101602D01*
X94255571Y-48101605D01*
X94013309Y-48201953D01*
X94013299Y-48201958D01*
X93786196Y-48333075D01*
X93578148Y-48492718D01*
X93392718Y-48678148D01*
X93233075Y-48886196D01*
X93101958Y-49113299D01*
X93101953Y-49113309D01*
X93001605Y-49355571D01*
X93001602Y-49355581D01*
X92943057Y-49574077D01*
X92933730Y-49608885D01*
X92899500Y-49868872D01*
X92200499Y-49868872D01*
X92166270Y-49608884D01*
X92098398Y-49355581D01*
X92087699Y-49329751D01*
X91998046Y-49113309D01*
X91998041Y-49113299D01*
X91866924Y-48886196D01*
X91707281Y-48678148D01*
X91707274Y-48678140D01*
X91521860Y-48492726D01*
X91521851Y-48492718D01*
X91313803Y-48333075D01*
X91086700Y-48201958D01*
X91086690Y-48201953D01*
X90844428Y-48101605D01*
X90844421Y-48101603D01*
X90844419Y-48101602D01*
X90591116Y-48033730D01*
X90533339Y-48026123D01*
X90331127Y-47999500D01*
X90331120Y-47999500D01*
X90068880Y-47999500D01*
X90068872Y-47999500D01*
X89837772Y-48029926D01*
X89808884Y-48033730D01*
X89573312Y-48096851D01*
X89555581Y-48101602D01*
X89555571Y-48101605D01*
X89313309Y-48201953D01*
X89313299Y-48201958D01*
X89086196Y-48333075D01*
X88878148Y-48492718D01*
X88692718Y-48678148D01*
X88533075Y-48886196D01*
X88401958Y-49113299D01*
X88401953Y-49113309D01*
X88301605Y-49355571D01*
X88301602Y-49355581D01*
X88243057Y-49574077D01*
X88233730Y-49608885D01*
X88199500Y-49868872D01*
X84200000Y-49868872D01*
X84200000Y-49518234D01*
X84164367Y-49156443D01*
X84093449Y-48799909D01*
X84093446Y-48799898D01*
X83987913Y-48452002D01*
X83848792Y-48116135D01*
X83848790Y-48116130D01*
X83677429Y-47795537D01*
X83677418Y-47795519D01*
X83475449Y-47493250D01*
X83431057Y-47439158D01*
X83431056Y-47439157D01*
X83288320Y-47265233D01*
X83288319Y-47265232D01*
X81794251Y-48759300D01*
X81720412Y-48657670D01*
X81542330Y-48479588D01*
X81440698Y-48405748D01*
X82934766Y-46911679D01*
X82934765Y-46911678D01*
X82706750Y-46724551D01*
X82404480Y-46522581D01*
X82404462Y-46522570D01*
X82083869Y-46351209D01*
X82083864Y-46351207D01*
X81747997Y-46212086D01*
X81400101Y-46106553D01*
X81400090Y-46106550D01*
X81043556Y-46035632D01*
X80681766Y-46000000D01*
X80318234Y-46000000D01*
X79956443Y-46035632D01*
X79599909Y-46106550D01*
X79599898Y-46106553D01*
X79252002Y-46212086D01*
X78916135Y-46351207D01*
X78916130Y-46351209D01*
X78595537Y-46522570D01*
X78595519Y-46522581D01*
X78293258Y-46724545D01*
X78293254Y-46724548D01*
X78065233Y-46911679D01*
X78065233Y-46911680D01*
X79559301Y-48405748D01*
X79457670Y-48479588D01*
X79279588Y-48657670D01*
X79205748Y-48759301D01*
X77711680Y-47265233D01*
X77711679Y-47265233D01*
X77524548Y-47493254D01*
X77524545Y-47493258D01*
X77322581Y-47795519D01*
X77322570Y-47795537D01*
X77151209Y-48116130D01*
X77151207Y-48116135D01*
X77012086Y-48452002D01*
X76906553Y-48799898D01*
X76906550Y-48799909D01*
X76835632Y-49156443D01*
X76800000Y-49518234D01*
X75508018Y-49518234D01*
X75508356Y-49510063D01*
X75514745Y-49355581D01*
X75515815Y-49329716D01*
X75516177Y-49324098D01*
X75523531Y-49240031D01*
X75524003Y-49235582D01*
X75564218Y-48912959D01*
X75565138Y-48906842D01*
X75579003Y-48828210D01*
X75579732Y-48824428D01*
X75647553Y-48500974D01*
X75649123Y-48494394D01*
X75667614Y-48425385D01*
X75668500Y-48422251D01*
X75765389Y-48096810D01*
X75767685Y-48089862D01*
X75787331Y-48035886D01*
X75788276Y-48033380D01*
X75916976Y-47703551D01*
X75920079Y-47696292D01*
X75934634Y-47665080D01*
X75935415Y-47663445D01*
X76100823Y-47325097D01*
X76105683Y-47316116D01*
X76311973Y-46969918D01*
X76317568Y-46961356D01*
X76337520Y-46933412D01*
X76551728Y-46633394D01*
X76557996Y-46625342D01*
X76818443Y-46317832D01*
X76825362Y-46310316D01*
X77110316Y-46025362D01*
X77117832Y-46018443D01*
X77425342Y-45757996D01*
X77433394Y-45751728D01*
X77761372Y-45517556D01*
X77769918Y-45511973D01*
X78116116Y-45305683D01*
X78125097Y-45300823D01*
X78463445Y-45135415D01*
X78465080Y-45134634D01*
X78496292Y-45120079D01*
X78503551Y-45116976D01*
X78833380Y-44988276D01*
X78835886Y-44987331D01*
X78889862Y-44967685D01*
X78896810Y-44965389D01*
X79222251Y-44868500D01*
X79225385Y-44867614D01*
X79294394Y-44849123D01*
X79300974Y-44847553D01*
X79624428Y-44779732D01*
X79628210Y-44779003D01*
X79706842Y-44765138D01*
X79712959Y-44764218D01*
X80035582Y-44724003D01*
X80040031Y-44723531D01*
X80124098Y-44716177D01*
X80129716Y-44715815D01*
X80497204Y-44700615D01*
X80502798Y-44700511D01*
X153449699Y-45000293D01*
G37*
%TD.AperFunction*%
%TD*%
M02*
