%TF.GenerationSoftware,KiCad,Pcbnew,9.0.0*%
%TF.CreationDate,2025-03-24T08:49:24+01:00*%
%TF.ProjectId,Pcb_Ampli2,5063625f-416d-4706-9c69-322e6b696361,rev?*%
%TF.SameCoordinates,Original*%
%TF.FileFunction,Paste,Top*%
%TF.FilePolarity,Positive*%
%FSLAX46Y46*%
G04 Gerber Fmt 4.6, Leading zero omitted, Abs format (unit mm)*
G04 Created by KiCad (PCBNEW 9.0.0) date 2025-03-24 08:49:24*
%MOMM*%
%LPD*%
G01*
G04 APERTURE LIST*
G04 Aperture macros list*
%AMRoundRect*
0 Rectangle with rounded corners*
0 $1 Rounding radius*
0 $2 $3 $4 $5 $6 $7 $8 $9 X,Y pos of 4 corners*
0 Add a 4 corners polygon primitive as box body*
4,1,4,$2,$3,$4,$5,$6,$7,$8,$9,$2,$3,0*
0 Add four circle primitives for the rounded corners*
1,1,$1+$1,$2,$3*
1,1,$1+$1,$4,$5*
1,1,$1+$1,$6,$7*
1,1,$1+$1,$8,$9*
0 Add four rect primitives between the rounded corners*
20,1,$1+$1,$2,$3,$4,$5,0*
20,1,$1+$1,$4,$5,$6,$7,0*
20,1,$1+$1,$6,$7,$8,$9,0*
20,1,$1+$1,$8,$9,$2,$3,0*%
G04 Aperture macros list end*
%ADD10RoundRect,0.250000X0.250000X0.475000X-0.250000X0.475000X-0.250000X-0.475000X0.250000X-0.475000X0*%
%ADD11RoundRect,0.225000X-0.225000X-0.250000X0.225000X-0.250000X0.225000X0.250000X-0.225000X0.250000X0*%
%ADD12RoundRect,0.200000X-0.200000X-0.275000X0.200000X-0.275000X0.200000X0.275000X-0.200000X0.275000X0*%
%ADD13RoundRect,0.225000X0.250000X-0.225000X0.250000X0.225000X-0.250000X0.225000X-0.250000X-0.225000X0*%
%ADD14RoundRect,0.250000X-0.262500X-0.450000X0.262500X-0.450000X0.262500X0.450000X-0.262500X0.450000X0*%
%ADD15RoundRect,0.250000X-0.275000X-0.700000X0.275000X-0.700000X0.275000X0.700000X-0.275000X0.700000X0*%
%ADD16RoundRect,0.225000X-0.250000X0.225000X-0.250000X-0.225000X0.250000X-0.225000X0.250000X0.225000X0*%
%ADD17RoundRect,0.250000X-0.475000X0.250000X-0.475000X-0.250000X0.475000X-0.250000X0.475000X0.250000X0*%
%ADD18RoundRect,0.225000X0.225000X0.250000X-0.225000X0.250000X-0.225000X-0.250000X0.225000X-0.250000X0*%
%ADD19O,1.400000X0.399999*%
G04 APERTURE END LIST*
D10*
%TO.C,C22*%
X118200000Y-75510000D03*
X116300000Y-75510000D03*
%TD*%
D11*
%TO.C,C33*%
X125900000Y-77820000D03*
X127450000Y-77820000D03*
%TD*%
D12*
%TO.C,R6*%
X126775000Y-61300000D03*
X128425000Y-61300000D03*
%TD*%
D13*
%TO.C,C29*%
X120300000Y-82075000D03*
X120300000Y-80525000D03*
%TD*%
D14*
%TO.C,R7*%
X88087500Y-68900000D03*
X89912500Y-68900000D03*
%TD*%
D11*
%TO.C,C6*%
X93325000Y-69790000D03*
X94875000Y-69790000D03*
%TD*%
D15*
%TO.C,L4*%
X113750000Y-85200000D03*
X116900000Y-85200000D03*
%TD*%
D13*
%TO.C,C32*%
X122600000Y-86850000D03*
X122600000Y-85300000D03*
%TD*%
D16*
%TO.C,C17*%
X109600000Y-72175000D03*
X109600000Y-73725000D03*
%TD*%
D17*
%TO.C,C5*%
X91900000Y-57850000D03*
X91900000Y-59750000D03*
%TD*%
D10*
%TO.C,C21*%
X118200000Y-72500000D03*
X116300000Y-72500000D03*
%TD*%
D13*
%TO.C,C18*%
X112800000Y-73725000D03*
X112800000Y-72175000D03*
%TD*%
D18*
%TO.C,C28*%
X128250000Y-67780000D03*
X126700000Y-67780000D03*
%TD*%
D12*
%TO.C,R9*%
X125850000Y-80990000D03*
X127500000Y-80990000D03*
%TD*%
D11*
%TO.C,C14*%
X105625000Y-63600000D03*
X107175000Y-63600000D03*
%TD*%
D12*
%TO.C,R5*%
X126675000Y-64500000D03*
X128325000Y-64500000D03*
%TD*%
%TO.C,R1*%
X99675000Y-55600000D03*
X101325000Y-55600000D03*
%TD*%
%TO.C,R10*%
X125850000Y-83900000D03*
X127500000Y-83900000D03*
%TD*%
D13*
%TO.C,C23*%
X119400000Y-61175000D03*
X119400000Y-59625000D03*
%TD*%
D18*
%TO.C,C34*%
X127400000Y-86000000D03*
X125850000Y-86000000D03*
%TD*%
D13*
%TO.C,C31*%
X122700000Y-82075000D03*
X122700000Y-80525000D03*
%TD*%
%TO.C,C24*%
X119300000Y-64675000D03*
X119300000Y-63125000D03*
%TD*%
D11*
%TO.C,C3*%
X93325000Y-63810000D03*
X94875000Y-63810000D03*
%TD*%
%TO.C,C4*%
X93325000Y-66910000D03*
X94875000Y-66910000D03*
%TD*%
D15*
%TO.C,L1*%
X109925000Y-60500000D03*
X113075000Y-60500000D03*
%TD*%
D19*
%TO.C,TPA1*%
X98500000Y-66632500D03*
X98500000Y-67267500D03*
X98500000Y-67902500D03*
X98500000Y-68537500D03*
X98500000Y-69172500D03*
X98500000Y-69807500D03*
X98500000Y-70442500D03*
X98500000Y-71077500D03*
X98500000Y-71712500D03*
X98500000Y-72347500D03*
X98500000Y-72982500D03*
X98500000Y-73617500D03*
X98500000Y-74252500D03*
X98500000Y-74887500D03*
X98500000Y-75522500D03*
X98500000Y-76157500D03*
X98500000Y-76792500D03*
X98500000Y-77427500D03*
X98500000Y-78062500D03*
X98500000Y-78697500D03*
X98500000Y-79332500D03*
X98500000Y-79967500D03*
X106100000Y-79967500D03*
X106100000Y-79332500D03*
X106100000Y-78697500D03*
X106100000Y-78062500D03*
X106100000Y-77427500D03*
X106100000Y-76792500D03*
X106100000Y-76157500D03*
X106100000Y-75522500D03*
X106100000Y-74887500D03*
X106100000Y-74252500D03*
X106100000Y-73617500D03*
X106100000Y-72982500D03*
X106100000Y-72347500D03*
X106100000Y-71712500D03*
X106100000Y-71077500D03*
X106100000Y-70442500D03*
X106100000Y-69807500D03*
X106100000Y-69172500D03*
X106100000Y-68537500D03*
X106100000Y-67902500D03*
X106100000Y-67267500D03*
X106100000Y-66632500D03*
%TD*%
D11*
%TO.C,C13*%
X105625000Y-61090000D03*
X107175000Y-61090000D03*
%TD*%
%TO.C,C15*%
X109925000Y-70190000D03*
X111475000Y-70190000D03*
%TD*%
%TO.C,C7*%
X93325000Y-72300000D03*
X94875000Y-72300000D03*
%TD*%
D12*
%TO.C,R2*%
X90675000Y-84800000D03*
X92325000Y-84800000D03*
%TD*%
D16*
%TO.C,C1*%
X95300000Y-57925000D03*
X95300000Y-59475000D03*
%TD*%
D11*
%TO.C,C20*%
X109025000Y-85000000D03*
X110575000Y-85000000D03*
%TD*%
%TO.C,C9*%
X93325000Y-77320000D03*
X94875000Y-77320000D03*
%TD*%
D13*
%TO.C,C25*%
X123525000Y-61150000D03*
X123525000Y-59600000D03*
%TD*%
D11*
%TO.C,C19*%
X109025000Y-82490000D03*
X110575000Y-82490000D03*
%TD*%
D15*
%TO.C,L2*%
X109925000Y-64300000D03*
X113075000Y-64300000D03*
%TD*%
D11*
%TO.C,C8*%
X93325000Y-74810000D03*
X94875000Y-74810000D03*
%TD*%
%TO.C,C27*%
X126825000Y-58380000D03*
X128375000Y-58380000D03*
%TD*%
D16*
%TO.C,C2*%
X98200000Y-57925000D03*
X98200000Y-59475000D03*
%TD*%
D13*
%TO.C,C26*%
X123525000Y-64675000D03*
X123525000Y-63125000D03*
%TD*%
D11*
%TO.C,C10*%
X93450000Y-79700000D03*
X95000000Y-79700000D03*
%TD*%
D12*
%TO.C,R8*%
X88050000Y-70600000D03*
X89700000Y-70600000D03*
%TD*%
D13*
%TO.C,C30*%
X120100000Y-86850000D03*
X120100000Y-85300000D03*
%TD*%
D11*
%TO.C,C11*%
X93450000Y-82210000D03*
X95000000Y-82210000D03*
%TD*%
D13*
%TO.C,C16*%
X111200000Y-73725000D03*
X111200000Y-72175000D03*
%TD*%
D15*
%TO.C,L3*%
X113750000Y-81750000D03*
X116900000Y-81750000D03*
%TD*%
D13*
%TO.C,C12*%
X94400000Y-88050000D03*
X94400000Y-86500000D03*
%TD*%
M02*
