%TF.GenerationSoftware,KiCad,Pcbnew,9.0.0*%
%TF.CreationDate,2025-03-23T18:58:35+01:00*%
%TF.ProjectId,PCB_Ampli,5043425f-416d-4706-9c69-2e6b69636164,rev?*%
%TF.SameCoordinates,Original*%
%TF.FileFunction,Paste,Top*%
%TF.FilePolarity,Positive*%
%FSLAX46Y46*%
G04 Gerber Fmt 4.6, Leading zero omitted, Abs format (unit mm)*
G04 Created by KiCad (PCBNEW 9.0.0) date 2025-03-23 18:58:35*
%MOMM*%
%LPD*%
G01*
G04 APERTURE LIST*
G04 Aperture macros list*
%AMRoundRect*
0 Rectangle with rounded corners*
0 $1 Rounding radius*
0 $2 $3 $4 $5 $6 $7 $8 $9 X,Y pos of 4 corners*
0 Add a 4 corners polygon primitive as box body*
4,1,4,$2,$3,$4,$5,$6,$7,$8,$9,$2,$3,0*
0 Add four circle primitives for the rounded corners*
1,1,$1+$1,$2,$3*
1,1,$1+$1,$4,$5*
1,1,$1+$1,$6,$7*
1,1,$1+$1,$8,$9*
0 Add four rect primitives between the rounded corners*
20,1,$1+$1,$2,$3,$4,$5,0*
20,1,$1+$1,$4,$5,$6,$7,0*
20,1,$1+$1,$6,$7,$8,$9,0*
20,1,$1+$1,$8,$9,$2,$3,0*%
G04 Aperture macros list end*
%ADD10RoundRect,0.250000X-0.312500X-0.625000X0.312500X-0.625000X0.312500X0.625000X-0.312500X0.625000X0*%
%ADD11RoundRect,0.250000X0.325000X2.350000X-0.325000X2.350000X-0.325000X-2.350000X0.325000X-2.350000X0*%
%ADD12RoundRect,0.250000X1.075000X-0.362500X1.075000X0.362500X-1.075000X0.362500X-1.075000X-0.362500X0*%
%ADD13RoundRect,0.250000X0.362500X1.075000X-0.362500X1.075000X-0.362500X-1.075000X0.362500X-1.075000X0*%
%ADD14RoundRect,0.250000X0.625000X-0.312500X0.625000X0.312500X-0.625000X0.312500X-0.625000X-0.312500X0*%
%ADD15RoundRect,0.135000X0.135000X0.185000X-0.135000X0.185000X-0.135000X-0.185000X0.135000X-0.185000X0*%
%ADD16RoundRect,0.250000X-0.625000X0.312500X-0.625000X-0.312500X0.625000X-0.312500X0.625000X0.312500X0*%
%ADD17RoundRect,0.135000X-0.185000X0.135000X-0.185000X-0.135000X0.185000X-0.135000X0.185000X0.135000X0*%
%ADD18RoundRect,0.135000X0.185000X-0.135000X0.185000X0.135000X-0.185000X0.135000X-0.185000X-0.135000X0*%
%ADD19RoundRect,0.250000X-1.075000X0.362500X-1.075000X-0.362500X1.075000X-0.362500X1.075000X0.362500X0*%
%ADD20RoundRect,0.135000X-0.135000X-0.185000X0.135000X-0.185000X0.135000X0.185000X-0.135000X0.185000X0*%
%ADD21RoundRect,0.250000X-0.450000X0.262500X-0.450000X-0.262500X0.450000X-0.262500X0.450000X0.262500X0*%
%ADD22RoundRect,0.225000X-0.250000X0.225000X-0.250000X-0.225000X0.250000X-0.225000X0.250000X0.225000X0*%
%ADD23RoundRect,0.225000X-0.225000X-0.250000X0.225000X-0.250000X0.225000X0.250000X-0.225000X0.250000X0*%
%ADD24RoundRect,0.225000X0.225000X0.250000X-0.225000X0.250000X-0.225000X-0.250000X0.225000X-0.250000X0*%
%ADD25RoundRect,0.225000X0.250000X-0.225000X0.250000X0.225000X-0.250000X0.225000X-0.250000X-0.225000X0*%
%ADD26RoundRect,0.079500X-0.079500X-0.100500X0.079500X-0.100500X0.079500X0.100500X-0.079500X0.100500X0*%
G04 APERTURE END LIST*
D10*
%TO.C,R26*%
X97550000Y-93150000D03*
X94625000Y-93150000D03*
%TD*%
D11*
%TO.C,R65*%
X153290000Y-80000000D03*
X151040000Y-80000000D03*
%TD*%
%TO.C,R64*%
X158240000Y-80000000D03*
X155990000Y-80000000D03*
%TD*%
D12*
%TO.C,R60*%
X59450000Y-123112500D03*
X59450000Y-118487500D03*
%TD*%
D13*
%TO.C,R30*%
X135025000Y-77150000D03*
X130400000Y-77150000D03*
%TD*%
%TO.C,R29*%
X141687500Y-77150000D03*
X137062500Y-77150000D03*
%TD*%
D10*
%TO.C,R28*%
X98337500Y-90700000D03*
X101262500Y-90700000D03*
%TD*%
D14*
%TO.C,R27*%
X95750000Y-90262500D03*
X95750000Y-87337500D03*
%TD*%
D15*
%TO.C,R25*%
X99350000Y-85950000D03*
X98330000Y-85950000D03*
%TD*%
D16*
%TO.C,R24*%
X92450000Y-92337500D03*
X92450000Y-95262500D03*
%TD*%
D17*
%TO.C,R23*%
X83350000Y-89340000D03*
X83350000Y-90360000D03*
%TD*%
D18*
%TO.C,R22*%
X83825000Y-88010000D03*
X83825000Y-86990000D03*
%TD*%
D15*
%TO.C,R21*%
X56810000Y-80923300D03*
X55790000Y-80923300D03*
%TD*%
D19*
%TO.C,R20*%
X82300000Y-71287500D03*
X82300000Y-75912500D03*
%TD*%
D13*
%TO.C,R16*%
X125275000Y-51450000D03*
X120650000Y-51450000D03*
%TD*%
%TO.C,R15*%
X132075000Y-51500000D03*
X127450000Y-51500000D03*
%TD*%
D14*
%TO.C,R14*%
X101400000Y-66615800D03*
X101400000Y-63690800D03*
%TD*%
%TO.C,R13*%
X98850000Y-64303300D03*
X98850000Y-61378300D03*
%TD*%
%TO.C,R12*%
X98800000Y-69565800D03*
X98800000Y-66640800D03*
%TD*%
D20*
%TO.C,R11*%
X96065000Y-59800000D03*
X97085000Y-59800000D03*
%TD*%
D16*
%TO.C,R10*%
X92550000Y-64587500D03*
X92550000Y-67512500D03*
%TD*%
D20*
%TO.C,R9*%
X73980000Y-53346700D03*
X75000000Y-53346700D03*
%TD*%
D12*
%TO.C,R8*%
X80750000Y-64675000D03*
X80750000Y-60050000D03*
%TD*%
%TO.C,R7*%
X77000000Y-64662500D03*
X77000000Y-60037500D03*
%TD*%
D21*
%TO.C,R6*%
X62800000Y-64537500D03*
X62800000Y-66362500D03*
%TD*%
D15*
%TO.C,R5*%
X43110000Y-45566700D03*
X42090000Y-45566700D03*
%TD*%
D20*
%TO.C,R4*%
X59915000Y-64500000D03*
X60935000Y-64500000D03*
%TD*%
D12*
%TO.C,R3*%
X55550000Y-69362500D03*
X55550000Y-64737500D03*
%TD*%
D18*
%TO.C,R2*%
X43600000Y-53720000D03*
X43600000Y-52700000D03*
%TD*%
D20*
%TO.C,R1*%
X42890000Y-50910000D03*
X43910000Y-50910000D03*
%TD*%
D22*
%TO.C,C60*%
X49700000Y-118525000D03*
X49700000Y-120075000D03*
%TD*%
D23*
%TO.C,C26*%
X133150000Y-73150000D03*
X134700000Y-73150000D03*
%TD*%
%TO.C,C25*%
X140150000Y-73150000D03*
X141700000Y-73150000D03*
%TD*%
%TO.C,C24*%
X136950000Y-73150000D03*
X138500000Y-73150000D03*
%TD*%
D24*
%TO.C,C23*%
X99350000Y-87350000D03*
X97800000Y-87350000D03*
%TD*%
D23*
%TO.C,C22*%
X92125000Y-90450000D03*
X93675000Y-90450000D03*
%TD*%
D25*
%TO.C,C21*%
X85375000Y-88725000D03*
X85375000Y-87175000D03*
%TD*%
D26*
%TO.C,C10*%
X122055000Y-47600000D03*
X122745000Y-47600000D03*
%TD*%
%TO.C,C9*%
X131305000Y-48000000D03*
X131995000Y-48000000D03*
%TD*%
%TO.C,C8*%
X131305000Y-49050000D03*
X131995000Y-49050000D03*
%TD*%
D23*
%TO.C,C7*%
X95250000Y-61350000D03*
X96800000Y-61350000D03*
%TD*%
%TO.C,C6*%
X94700000Y-64650000D03*
X96250000Y-64650000D03*
%TD*%
D22*
%TO.C,C4*%
X83550000Y-59925000D03*
X83550000Y-61475000D03*
%TD*%
%TO.C,C3*%
X79550000Y-37725000D03*
X79550000Y-39275000D03*
%TD*%
D26*
%TO.C,C1*%
X57730000Y-64500000D03*
X58420000Y-64500000D03*
%TD*%
M02*
