%TF.GenerationSoftware,KiCad,Pcbnew,9.0.0*%
%TF.CreationDate,2025-03-24T09:17:14+01:00*%
%TF.ProjectId,PCB_Ampli,5043425f-416d-4706-9c69-2e6b69636164,rev?*%
%TF.SameCoordinates,Original*%
%TF.FileFunction,Soldermask,Top*%
%TF.FilePolarity,Negative*%
%FSLAX46Y46*%
G04 Gerber Fmt 4.6, Leading zero omitted, Abs format (unit mm)*
G04 Created by KiCad (PCBNEW 9.0.0) date 2025-03-24 09:17:14*
%MOMM*%
%LPD*%
G01*
G04 APERTURE LIST*
G04 Aperture macros list*
%AMRoundRect*
0 Rectangle with rounded corners*
0 $1 Rounding radius*
0 $2 $3 $4 $5 $6 $7 $8 $9 X,Y pos of 4 corners*
0 Add a 4 corners polygon primitive as box body*
4,1,4,$2,$3,$4,$5,$6,$7,$8,$9,$2,$3,0*
0 Add four circle primitives for the rounded corners*
1,1,$1+$1,$2,$3*
1,1,$1+$1,$4,$5*
1,1,$1+$1,$6,$7*
1,1,$1+$1,$8,$9*
0 Add four rect primitives between the rounded corners*
20,1,$1+$1,$2,$3,$4,$5,0*
20,1,$1+$1,$4,$5,$6,$7,0*
20,1,$1+$1,$6,$7,$8,$9,0*
20,1,$1+$1,$8,$9,$2,$3,0*%
G04 Aperture macros list end*
%ADD10RoundRect,0.250000X-0.725000X0.600000X-0.725000X-0.600000X0.725000X-0.600000X0.725000X0.600000X0*%
%ADD11O,1.950000X1.700000*%
%ADD12O,1.600000X1.600000*%
%ADD13RoundRect,0.250000X-0.600000X-0.725000X0.600000X-0.725000X0.600000X0.725000X-0.600000X0.725000X0*%
%ADD14O,1.700000X1.950000*%
%ADD15C,4.014000*%
%ADD16RoundRect,0.225000X-0.225000X-0.250000X0.225000X-0.250000X0.225000X0.250000X-0.225000X0.250000X0*%
%ADD17RoundRect,0.135000X0.135000X0.185000X-0.135000X0.185000X-0.135000X-0.185000X0.135000X-0.185000X0*%
%ADD18RoundRect,0.250000X-0.312500X-0.625000X0.312500X-0.625000X0.312500X0.625000X-0.312500X0.625000X0*%
%ADD19RoundRect,0.250000X1.075000X-0.362500X1.075000X0.362500X-1.075000X0.362500X-1.075000X-0.362500X0*%
%ADD20RoundRect,0.135000X-0.135000X-0.185000X0.135000X-0.185000X0.135000X0.185000X-0.135000X0.185000X0*%
%ADD21RoundRect,0.100000X-0.130000X-0.100000X0.130000X-0.100000X0.130000X0.100000X-0.130000X0.100000X0*%
%ADD22C,1.600000*%
%ADD23RoundRect,0.250000X-0.450000X0.262500X-0.450000X-0.262500X0.450000X-0.262500X0.450000X0.262500X0*%
%ADD24R,3.500000X3.500000*%
%ADD25O,3.500000X3.500000*%
%ADD26RoundRect,0.250000X0.625000X-0.312500X0.625000X0.312500X-0.625000X0.312500X-0.625000X-0.312500X0*%
%ADD27RoundRect,0.135000X-0.185000X0.135000X-0.185000X-0.135000X0.185000X-0.135000X0.185000X0.135000X0*%
%ADD28RoundRect,1.500000X-1.500000X-1.500000X1.500000X-1.500000X1.500000X1.500000X-1.500000X1.500000X0*%
%ADD29C,6.000000*%
%ADD30C,0.800000*%
%ADD31C,6.400000*%
%ADD32C,3.000000*%
%ADD33RoundRect,0.250000X0.362500X1.075000X-0.362500X1.075000X-0.362500X-1.075000X0.362500X-1.075000X0*%
%ADD34R,1.400000X1.400000*%
%ADD35C,1.400000*%
%ADD36RoundRect,0.250000X0.725000X-0.600000X0.725000X0.600000X-0.725000X0.600000X-0.725000X-0.600000X0*%
%ADD37RoundRect,0.250000X0.325000X2.350000X-0.325000X2.350000X-0.325000X-2.350000X0.325000X-2.350000X0*%
%ADD38RoundRect,0.250000X-0.625000X0.312500X-0.625000X-0.312500X0.625000X-0.312500X0.625000X0.312500X0*%
%ADD39RoundRect,0.225000X-0.250000X0.225000X-0.250000X-0.225000X0.250000X-0.225000X0.250000X0.225000X0*%
%ADD40RoundRect,0.250000X-1.075000X0.362500X-1.075000X-0.362500X1.075000X-0.362500X1.075000X0.362500X0*%
%ADD41RoundRect,0.250000X0.600000X0.725000X-0.600000X0.725000X-0.600000X-0.725000X0.600000X-0.725000X0*%
%ADD42RoundRect,0.135000X0.185000X-0.135000X0.185000X0.135000X-0.185000X0.135000X-0.185000X-0.135000X0*%
%ADD43RoundRect,1.500000X1.500000X1.500000X-1.500000X1.500000X-1.500000X-1.500000X1.500000X-1.500000X0*%
%ADD44RoundRect,0.225000X0.225000X0.250000X-0.225000X0.250000X-0.225000X-0.250000X0.225000X-0.250000X0*%
%ADD45C,2.400000*%
%ADD46O,2.400000X2.400000*%
%ADD47R,1.650000X1.650000*%
%ADD48C,1.650000*%
%ADD49RoundRect,0.225000X0.250000X-0.225000X0.250000X0.225000X-0.250000X0.225000X-0.250000X-0.225000X0*%
%ADD50C,2.006600*%
G04 APERTURE END LIST*
D10*
%TO.C,J5*%
X145900000Y-48300000D03*
D11*
X145900000Y-50800000D03*
X145900000Y-53300000D03*
%TD*%
D12*
%TO.C,SW1*%
X65450000Y-62300000D03*
X65450000Y-64550000D03*
X65450000Y-66800000D03*
X67950000Y-62300000D03*
X67950000Y-64550000D03*
X67950000Y-66800000D03*
%TD*%
D13*
%TO.C,Vol2_high1*%
X140875000Y-64450000D03*
D14*
X143375000Y-64450000D03*
X145875000Y-64450000D03*
%TD*%
D10*
%TO.C,Gain1_Post1*%
X87600000Y-62150000D03*
D11*
X87600000Y-64650000D03*
X87600000Y-67150000D03*
%TD*%
D15*
%TO.C,12ax4*%
X109533000Y-88634800D03*
X105850000Y-83402400D03*
X105850000Y-76900000D03*
X109533000Y-71667600D03*
X115832200Y-69661000D03*
X122131400Y-71667600D03*
X125814400Y-76900000D03*
X125814400Y-83402400D03*
X122131400Y-88634800D03*
%TD*%
D16*
%TO.C,C6*%
X94700000Y-64650000D03*
X96250000Y-64650000D03*
%TD*%
D13*
%TO.C,tone2*%
X135425000Y-69600000D03*
D14*
X137925000Y-69600000D03*
X140425000Y-69600000D03*
%TD*%
D17*
%TO.C,R5*%
X43110000Y-45566700D03*
X42090000Y-45566700D03*
%TD*%
D16*
%TO.C,C26*%
X133150000Y-73150000D03*
X134700000Y-73150000D03*
%TD*%
D18*
%TO.C,R26*%
X94625000Y-93150000D03*
X97550000Y-93150000D03*
%TD*%
D19*
%TO.C,R3*%
X55550000Y-69362500D03*
X55550000Y-64737500D03*
%TD*%
D20*
%TO.C,R4*%
X59915000Y-64500000D03*
X60935000Y-64500000D03*
%TD*%
D16*
%TO.C,C24*%
X136950000Y-73150000D03*
X138500000Y-73150000D03*
%TD*%
D21*
%TO.C,C1*%
X57755000Y-64500000D03*
X58395000Y-64500000D03*
%TD*%
D20*
%TO.C,R9*%
X73980000Y-53346700D03*
X75000000Y-53346700D03*
%TD*%
D17*
%TO.C,R21*%
X56810000Y-80923300D03*
X55790000Y-80923300D03*
%TD*%
D16*
%TO.C,C22*%
X92125000Y-90450000D03*
X93675000Y-90450000D03*
%TD*%
D22*
%TO.C,R63*%
X145900000Y-106950000D03*
D12*
X145900000Y-132350000D03*
%TD*%
D13*
%TO.C,Vol1_low2*%
X117900000Y-38000000D03*
D14*
X120400000Y-38000000D03*
X122900000Y-38000000D03*
%TD*%
D23*
%TO.C,R6*%
X62800000Y-64537500D03*
X62800000Y-66362500D03*
%TD*%
D18*
%TO.C,R28*%
X98337500Y-90700000D03*
X101262500Y-90700000D03*
%TD*%
D24*
%TO.C,C62*%
X103350000Y-126700000D03*
D25*
X113350000Y-126700000D03*
%TD*%
D26*
%TO.C,R14*%
X101400000Y-66615800D03*
X101400000Y-63690800D03*
%TD*%
D12*
%TO.C,RV11*%
X152200000Y-71600000D03*
X154740000Y-69060000D03*
X157280000Y-71600000D03*
%TD*%
D27*
%TO.C,R23*%
X83350000Y-89340000D03*
X83350000Y-90360000D03*
%TD*%
D28*
%TO.C,InSwitch1*%
X32650000Y-103100000D03*
D29*
X39850000Y-103100000D03*
%TD*%
D12*
%TO.C,C5*%
X73340000Y-49416700D03*
X75840000Y-49346700D03*
%TD*%
D19*
%TO.C,R8*%
X80750000Y-64675000D03*
X80750000Y-60050000D03*
%TD*%
D30*
%TO.C,H2*%
X27600000Y-140000000D03*
X28302944Y-138302944D03*
X28302944Y-141697056D03*
X30000000Y-137600000D03*
D31*
X30000000Y-140000000D03*
D30*
X30000000Y-142400000D03*
X31697056Y-138302944D03*
X31697056Y-141697056D03*
X32400000Y-140000000D03*
%TD*%
%TO.C,H3*%
X162600000Y-37500000D03*
X163302944Y-35802944D03*
X163302944Y-39197056D03*
X165000000Y-35100000D03*
D31*
X165000000Y-37500000D03*
D30*
X165000000Y-39900000D03*
X166697056Y-35802944D03*
X166697056Y-39197056D03*
X167400000Y-37500000D03*
%TD*%
D32*
%TO.C,SW3*%
X37850000Y-94400000D03*
X42550000Y-94400000D03*
X47250000Y-94400000D03*
%TD*%
D12*
%TO.C,C2*%
X44050000Y-40946700D03*
X41550000Y-41016700D03*
%TD*%
D33*
%TO.C,R29*%
X141687500Y-77150000D03*
X137062500Y-77150000D03*
%TD*%
D34*
%TO.C,C64*%
X133400000Y-130100000D03*
D35*
X133400000Y-135100000D03*
%TD*%
D36*
%TO.C,RV6*%
X55600000Y-90700000D03*
D11*
X55600000Y-88200000D03*
X55600000Y-85700000D03*
%TD*%
D37*
%TO.C,R65*%
X153290000Y-80000000D03*
X151040000Y-80000000D03*
%TD*%
D20*
%TO.C,R1*%
X42890000Y-50910000D03*
X43910000Y-50910000D03*
%TD*%
D38*
%TO.C,R10*%
X92550000Y-64587500D03*
X92550000Y-67512500D03*
%TD*%
D16*
%TO.C,C25*%
X140150000Y-73150000D03*
X141700000Y-73150000D03*
%TD*%
D15*
%TO.C,12ax1*%
X51700800Y-58086900D03*
X48017800Y-52854500D03*
X48017800Y-46352100D03*
X51700800Y-41119700D03*
X58000000Y-39113100D03*
X64299200Y-41119700D03*
X67982200Y-46352100D03*
X67982200Y-52854500D03*
X64299200Y-58086900D03*
%TD*%
D17*
%TO.C,R25*%
X99350000Y-85950000D03*
X98330000Y-85950000D03*
%TD*%
D13*
%TO.C,tone1*%
X123650000Y-44300000D03*
D14*
X126150000Y-44300000D03*
X128650000Y-44300000D03*
%TD*%
D28*
%TO.C,OutSwitch1*%
X32650000Y-112700000D03*
D29*
X39850000Y-112700000D03*
%TD*%
D15*
%TO.C,12ax2*%
X93050800Y-57486900D03*
X89367800Y-52254500D03*
X89367800Y-45752100D03*
X93050800Y-40519700D03*
X99350000Y-38513100D03*
X105649200Y-40519700D03*
X109332200Y-45752100D03*
X109332200Y-52254500D03*
X105649200Y-57486900D03*
%TD*%
D16*
%TO.C,C7*%
X95250000Y-61350000D03*
X96800000Y-61350000D03*
%TD*%
D21*
%TO.C,C8*%
X131330000Y-49050000D03*
X131970000Y-49050000D03*
%TD*%
D12*
%TO.C,D1*%
X54650000Y-130000000D03*
X54650000Y-122300000D03*
X54650000Y-114600000D03*
X54650000Y-106900000D03*
%TD*%
D33*
%TO.C,R30*%
X135025000Y-77150000D03*
X130400000Y-77150000D03*
%TD*%
D37*
%TO.C,R64*%
X158240000Y-80000000D03*
X155990000Y-80000000D03*
%TD*%
D30*
%TO.C,H4*%
X162600000Y-140000000D03*
X163302944Y-138302944D03*
X163302944Y-141697056D03*
X165000000Y-137600000D03*
D31*
X165000000Y-140000000D03*
D30*
X165000000Y-142400000D03*
X166697056Y-138302944D03*
X166697056Y-141697056D03*
X167400000Y-140000000D03*
%TD*%
D15*
%TO.C,12ax3*%
X64700800Y-92683600D03*
X61017800Y-87451200D03*
X61017800Y-80948800D03*
X64700800Y-75716400D03*
X71000000Y-73709800D03*
X77299200Y-75716400D03*
X80982200Y-80948800D03*
X80982200Y-87451200D03*
X77299200Y-92683600D03*
%TD*%
D36*
%TO.C,Gain2_Post1*%
X88350000Y-94500000D03*
D11*
X88350000Y-92000000D03*
X88350000Y-89500000D03*
%TD*%
D19*
%TO.C,R7*%
X77000000Y-64662500D03*
X77000000Y-60037500D03*
%TD*%
D39*
%TO.C,C60*%
X49700000Y-118525000D03*
X49700000Y-120075000D03*
%TD*%
D33*
%TO.C,R15*%
X132075000Y-51500000D03*
X127450000Y-51500000D03*
%TD*%
D40*
%TO.C,R20*%
X82300000Y-71287500D03*
X82300000Y-75912500D03*
%TD*%
D26*
%TO.C,R12*%
X98800000Y-69565800D03*
X98800000Y-66640800D03*
%TD*%
D21*
%TO.C,C9*%
X131330000Y-48000000D03*
X131970000Y-48000000D03*
%TD*%
D39*
%TO.C,C4*%
X83550000Y-59925000D03*
X83550000Y-61475000D03*
%TD*%
D12*
%TO.C,SW2*%
X136200000Y-48300000D03*
X136200000Y-50550000D03*
X136200000Y-52800000D03*
X138700000Y-48300000D03*
X138700000Y-50550000D03*
X138700000Y-52800000D03*
%TD*%
D38*
%TO.C,R24*%
X92450000Y-92337500D03*
X92450000Y-95262500D03*
%TD*%
D41*
%TO.C,Vol2_low1*%
X134525000Y-65050000D03*
D14*
X132025000Y-65050000D03*
X129525000Y-65050000D03*
%TD*%
D42*
%TO.C,R2*%
X43600000Y-53720000D03*
X43600000Y-52700000D03*
%TD*%
D43*
%TO.C,J3*%
X160190000Y-97700000D03*
D29*
X152990000Y-97700000D03*
%TD*%
D28*
%TO.C,J1*%
X34200000Y-86150000D03*
D29*
X41400000Y-86150000D03*
%TD*%
D10*
%TO.C,Gain1_before1*%
X75150000Y-37050000D03*
D11*
X75150000Y-39550000D03*
X75150000Y-42050000D03*
%TD*%
D21*
%TO.C,C10*%
X122080000Y-47600000D03*
X122720000Y-47600000D03*
%TD*%
D44*
%TO.C,C23*%
X99350000Y-87350000D03*
X97800000Y-87350000D03*
%TD*%
D13*
%TO.C,Vol1_high1*%
X129150000Y-38000000D03*
D14*
X131650000Y-38000000D03*
X134150000Y-38000000D03*
%TD*%
D33*
%TO.C,R16*%
X125275000Y-51450000D03*
X120650000Y-51450000D03*
%TD*%
D26*
%TO.C,R13*%
X98850000Y-64303300D03*
X98850000Y-61378300D03*
%TD*%
D20*
%TO.C,R11*%
X96065000Y-59800000D03*
X97085000Y-59800000D03*
%TD*%
D32*
%TO.C,SW4*%
X158390000Y-88300000D03*
X153690000Y-88300000D03*
X148990000Y-88300000D03*
%TD*%
D45*
%TO.C,R61*%
X62505000Y-104700000D03*
D46*
X92985000Y-104700000D03*
%TD*%
D47*
%TO.C,C63*%
X126650000Y-113500000D03*
D48*
X134150000Y-113500000D03*
%TD*%
D12*
%TO.C,C20*%
X57650000Y-76980000D03*
X55150000Y-77050000D03*
%TD*%
D39*
%TO.C,C3*%
X79550000Y-37725000D03*
X79550000Y-39275000D03*
%TD*%
D19*
%TO.C,R60*%
X59450000Y-123112500D03*
X59450000Y-118487500D03*
%TD*%
D49*
%TO.C,C21*%
X85375000Y-88725000D03*
X85375000Y-87175000D03*
%TD*%
D24*
%TO.C,C61*%
X71900000Y-126850000D03*
D25*
X81900000Y-126850000D03*
%TD*%
D26*
%TO.C,R27*%
X95750000Y-90262500D03*
X95750000Y-87337500D03*
%TD*%
D42*
%TO.C,R22*%
X83825000Y-88010000D03*
X83825000Y-86990000D03*
%TD*%
D22*
%TO.C,R62*%
X99350000Y-102100000D03*
D12*
X124750000Y-102100000D03*
%TD*%
D30*
%TO.C,H1*%
X27600000Y-37500000D03*
X28302944Y-35802944D03*
X28302944Y-39197056D03*
X30000000Y-35100000D03*
D31*
X30000000Y-37500000D03*
D30*
X30000000Y-39900000D03*
X31697056Y-35802944D03*
X31697056Y-39197056D03*
X32400000Y-37500000D03*
%TD*%
D50*
%TO.C,J2*%
X33941112Y-78931600D03*
X33941112Y-67501600D03*
X30741104Y-78931600D03*
X30741104Y-67501600D03*
X43441104Y-78931600D03*
X43441104Y-67501600D03*
%TD*%
M02*
