M48
; DRILL file {KiCad 9.0.0} date 2025-03-24T09:17:12+0100
; FORMAT={-:-/ absolute / inch / decimal}
; #@! TF.CreationDate,2025-03-24T09:17:12+01:00
; #@! TF.GenerationSoftware,Kicad,Pcbnew,9.0.0
; #@! TF.FileFunction,Plated,1,4,PTH
FMAT,2
INCH
; #@! TA.AperFunction,Plated,PTH,ViaDrill
T1C0.0118
; #@! TA.AperFunction,Plated,PTH,ComponentDrill
T2C0.0197
; #@! TA.AperFunction,Plated,PTH,ViaDrill
T3C0.0236
; #@! TA.AperFunction,Plated,PTH,ComponentDrill
T4C0.0315
; #@! TA.AperFunction,Plated,PTH,ComponentDrill
T5C0.0354
; #@! TA.AperFunction,Plated,PTH,ComponentDrill
T6C0.0374
; #@! TA.AperFunction,Plated,PTH,ViaDrill
T7C0.0394
; #@! TA.AperFunction,Plated,PTH,ComponentDrill
T8C0.0433
; #@! TA.AperFunction,Plated,PTH,ComponentDrill
T9C0.0472
; #@! TA.AperFunction,Plated,PTH,ComponentDrill
T10C0.0590
; #@! TA.AperFunction,Plated,PTH,ComponentDrill
T11C0.0728
; #@! TA.AperFunction,Plated,PTH,ComponentDrill
T12C0.0760
; #@! TA.AperFunction,Plated,PTH,ComponentDrill
T13C0.0787
; #@! TA.AperFunction,Plated,PTH,ComponentDrill
T14C0.1260
; #@! TA.AperFunction,Plated,PTH,ComponentDrill
T15C0.1772
%
G90
G05
T1
X1.5748Y-1.8031
X1.7008Y-2.1811
X1.8189Y-2.4961
X2.0866Y-3.126
X2.3543Y-4.5039
X2.4016Y-1.8189
X2.7559Y-2.3386
X2.8976Y-2.4173
X3.0394Y-2.0709
X3.2756Y-3.622
X3.3386Y-3.685
X3.622Y-2.7244
X3.6929Y-3.811
X3.7244Y-2.3622
X3.7323Y-2.189
X3.8268Y-2.315
X3.9606Y-3.4016
X4.0551Y-2.5984
X4.0709Y-2.1496
X4.937Y-3.4961
X5.1811Y-2.1339
T2
X1.0866Y-1.4764
X1.0866Y-5.5118
X1.1143Y-1.4096
X1.1143Y-1.5432
X1.1143Y-5.445
X1.1143Y-5.5786
X1.1811Y-1.3819
X1.1811Y-1.5709
X1.1811Y-5.4173
X1.1811Y-5.6063
X1.2479Y-1.4096
X1.2479Y-1.5432
X1.2479Y-5.445
X1.2479Y-5.5786
X1.2756Y-1.4764
X1.2756Y-5.5118
X6.4016Y-1.4764
X6.4016Y-5.5118
X6.4292Y-1.4096
X6.4292Y-1.5432
X6.4292Y-5.445
X6.4292Y-5.5786
X6.4961Y-1.3819
X6.4961Y-1.5709
X6.4961Y-5.4173
X6.4961Y-5.6063
X6.5629Y-1.4096
X6.5629Y-1.5432
X6.5629Y-5.445
X6.5629Y-5.5786
X6.5906Y-1.4764
X6.5906Y-5.5118
T3
X1.5394Y-1.3819
X1.9094Y-2.8268
T4
X1.6358Y-1.6148
X1.7343Y-1.6121
X2.1516Y-4.2087
X2.1516Y-4.5118
X2.1516Y-4.815
X2.1516Y-5.1181
X2.1713Y-3.0335
X2.2697Y-3.0307
X2.5768Y-2.4528
X2.5768Y-2.5413
X2.5768Y-2.6299
X2.6752Y-2.4528
X2.6752Y-2.5413
X2.6752Y-2.6299
X2.8874Y-1.9455
X2.9858Y-1.9428
X3.9114Y-4.0197
X4.9114Y-4.0197
X5.3622Y-1.9016
X5.3622Y-1.9902
X5.3622Y-2.0787
X5.4606Y-1.9016
X5.4606Y-1.9902
X5.4606Y-2.0787
X5.7441Y-4.2106
X5.7441Y-5.2106
X5.9921Y-2.8189
X6.0921Y-2.7189
X6.1921Y-2.8189
T5
X5.252Y-5.122
X5.252Y-5.3189
T6
X2.189Y-3.374
X2.189Y-3.4724
X2.189Y-3.5709
X2.9587Y-1.4587
X2.9587Y-1.5571
X2.9587Y-1.6555
X3.4488Y-2.4469
X3.4488Y-2.5453
X3.4488Y-2.6437
X3.4783Y-3.5236
X3.4783Y-3.622
X3.4783Y-3.7205
X4.6417Y-1.4961
X4.7402Y-1.4961
X4.8386Y-1.4961
X4.8681Y-1.7441
X4.9665Y-1.7441
X5.065Y-1.7441
X5.0846Y-1.4961
X5.0994Y-2.561
X5.1831Y-1.4961
X5.1978Y-2.561
X5.2815Y-1.4961
X5.2963Y-2.561
X5.3317Y-2.7402
X5.4301Y-2.7402
X5.5285Y-2.7402
X5.5463Y-2.5374
X5.6447Y-2.5374
X5.7431Y-2.5374
X5.7441Y-1.9016
X5.7441Y-2.0
X5.7441Y-2.0984
T7
X4.7165Y-2.2598
X5.378Y-3.2283
T8
X4.9862Y-4.4685
X5.2815Y-4.4685
T9
X2.4608Y-4.122
X3.6608Y-4.122
T10
X1.2103Y-2.6575
X1.2103Y-3.1075
X1.7103Y-2.6575
X1.7103Y-3.1075
T11
X1.4902Y-3.7165
X1.6752Y-3.7165
X1.8602Y-3.7165
X5.8657Y-3.4764
X6.0508Y-3.4764
X6.2358Y-3.4764
T12
X1.8905Y-1.8249
X1.8905Y-2.0809
X2.0355Y-1.6189
X2.0355Y-2.2869
X2.2835Y-1.5399
X2.4023Y-3.187
X2.4023Y-3.443
X2.5315Y-1.6189
X2.5315Y-2.2869
X2.5473Y-2.981
X2.5473Y-3.649
X2.6765Y-1.8249
X2.6765Y-2.0809
X2.7953Y-2.902
X3.0433Y-2.981
X3.0433Y-3.649
X3.1883Y-3.187
X3.1883Y-3.443
X3.5184Y-1.8013
X3.5184Y-2.0573
X3.6634Y-1.5953
X3.6634Y-2.2633
X3.9114Y-1.5163
X4.1594Y-1.5953
X4.1594Y-2.2633
X4.1673Y-3.0276
X4.1673Y-3.2836
X4.3044Y-1.8013
X4.3044Y-2.0573
X4.3123Y-2.8216
X4.3123Y-3.4896
X4.5603Y-2.7426
X4.8083Y-2.8216
X4.8083Y-3.4896
X4.9533Y-3.0276
X4.9533Y-3.2836
T13
X2.8307Y-4.9941
X3.2244Y-4.9941
X4.0689Y-4.9882
X4.4626Y-4.9882
T14
X1.1811Y-1.4764
X1.1811Y-5.5118
X6.4961Y-1.4764
X6.4961Y-5.5118
T15
X1.2854Y-4.0591
X1.2854Y-4.437
X1.3465Y-3.3917
X1.5689Y-4.0591
X1.5689Y-4.437
X1.6299Y-3.3917
X6.0232Y-3.8465
X6.3067Y-3.8465
M30
